<svg width="543" height="543" viewBox="0 0 543 543" fill="none" xmlns="http://www.w3.org/2000/svg">
<g clip-path="url(#clip0_8_9)">
<path d="M177.262 224.284C177.262 242.038 183.074 260.945 189.662 277.115C193.222 285.853 196.415 295.27 199.16 304.289C200.891 309.979 204.444 319.831 208.394 324.274C216.358 333.234 224.432 341.241 233.655 348.414C242.894 355.6 253.538 356.175 263.929 360.55C275.841 365.566 292.867 364.375 306.075 364.375C316.925 364.375 327.736 358.219 335.736 353.296C342.236 349.296 351.192 343.66 355.736 336.796C361.192 328.553 366.236 321.796 370.736 312.296" stroke="#B822FF" stroke-width="3" stroke-linecap="round"/>
<path d="M348.236 344.796C353.736 338.796 362.736 326.796 366.236 319.796C376.236 302.796 380.236 285.296 386.736 263.296C387.531 254.951 389.236 249.404 389.236 240.796C389.236 235.453 389.236 229.138 389.236 223.796" stroke="#B822FF" stroke-width="3" stroke-linecap="round"/>
<path d="M178.449 223.097C171.221 223.097 156.895 227.641 150.616 222.503C137.614 211.865 133.335 186.77 133.335 170.926C133.335 165.794 133.227 163.317 136.897 159.647C139.09 157.454 146.476 152.058 149.956 151.864C156.83 151.482 162.14 152.538 167.764 156.877C171.166 159.501 174.049 165.691 177.262 167.298" stroke="#B822FF" stroke-width="3" stroke-linecap="round"/>
<path d="M152.331 172.047C167.137 172.047 172.291 194.401 169.875 206.212C167.792 216.395 159.624 213.599 151.143 213.599" stroke="#B822FF" stroke-width="3" stroke-linecap="round"/>
<path d="M381.463 223.097C385.508 223.097 389.554 223.097 393.599 223.097C399.266 223.097 407.593 226.293 412.99 224.02C428.594 217.45 429.986 199.679 435.415 185.106C436.93 181.041 441.453 175.729 436.339 172.047C432.285 169.128 427.928 166.318 422.752 166.111C417.273 165.892 401.646 160.679 401.646 169.672" stroke="#B822FF" stroke-width="3" stroke-linecap="round"/>
<path d="M409.956 185.106C404.042 186.289 393.427 210.038 399.535 210.038C406.333 210.038 415.328 210.662 407.581 202.914" stroke="#B822FF" stroke-width="3" stroke-linecap="round"/>
<path d="M195.07 173.234C210.651 173.234 226.264 170.86 241.372 170.86" stroke="#EB22A3" stroke-width="3" stroke-linecap="round"/>
<path d="M323.29 169.672C338.446 169.672 353.291 168.485 368.404 168.485" stroke="#EB22A3" stroke-width="3" stroke-linecap="round"/>
<path d="M192.696 174.421C187.459 174.421 187.947 175.506 187.947 180.489C187.947 186.581 188.897 192.91 189.134 199.089C189.481 208.092 195.126 217.655 204.832 218.348C218.701 219.339 231.167 223.062 240.185 209.774C245.923 201.317 242.559 184.587 242.559 174.421" stroke="#EB22A3" stroke-width="3" stroke-linecap="round"/>
<path d="M324.477 169.672C321.588 169.672 317.353 168.394 317.353 172.113C317.353 177.543 317.353 182.974 317.353 188.404C317.353 194.296 315.88 202.584 319.728 207.531C323.341 212.178 328.011 214.466 333.381 216.567C345.192 221.189 361.324 223.914 369.063 211.753C373.758 204.375 368.621 193.164 368.403 185.106C368.269 180.124 369.591 175.786 369.591 170.86" stroke="#EB22A3" stroke-width="3" stroke-linecap="round"/>
<path d="M168.952 170.86C171.937 170.684 174.564 168.761 177.262 167.562C179.307 166.653 182.81 166.885 185.045 166.375C191.018 165.009 198.172 166.242 203.909 164.33C208.637 162.754 215.084 163.736 220.002 163.736C224.244 163.736 228.545 162.549 232.468 162.549C255.179 162.549 278.885 160.175 301.392 160.175C325.244 160.175 349.82 156.679 373.614 159.581C382.244 160.634 406.339 161.817 392.148 176.796C383.378 186.053 383.236 192.796 382.236 205.296" stroke="#EB22A3" stroke-width="3" stroke-linecap="round"/>
<path d="M382.736 197.795C382.736 205.908 380.547 213.528 380.547 221.64C380.547 223.573 374.343 225.672 372.236 225.795C370.812 225.879 364.711 227.504 363.589 228.44C361.684 230.027 352.609 230.22 350.002 230.22C346.242 230.22 342.483 230.22 338.723 230.22C333.882 230.22 329.718 230 325.07 228.967C320.328 227.913 318.966 226.366 314.979 224.02C309.93 221.05 304.294 213.105 304.294 207.07C304.294 203.052 301.946 179.295 296.736 179.295C289.003 179.295 282.736 179.295 274.736 179.295C271.39 179.295 266.61 179.506 263.401 180.423C259.923 181.417 260.613 186.283 258.916 188.404C255.141 193.123 259.582 203.585 257.927 209.378C257.19 211.955 256.446 215.236 254.695 217.425C254.343 217.864 253.485 220.768 253.31 221.382C252.491 224.248 252.427 222.931 250.869 224.878C247.643 228.911 239.169 229.947 234.248 230.22C225.036 230.732 215.324 231.408 205.755 231.408C199.32 231.408 189.84 232.587 185.573 227.252C182.957 223.982 181.071 221.617 180.824 217.161C180.644 213.933 178.449 211.204 178.449 208.257C178.449 206.417 176.802 200.409 175.481 199.353C173.683 197.914 175.02 190.914 174.888 188.668C174.749 186.312 171.952 183.438 171.26 181.017C170.208 177.336 167.764 176.636 167.764 172.047" stroke="#EB22A3" stroke-width="3" stroke-linecap="round"/>
<path d="M214.066 188.668C214.066 184.259 220.402 185.106 223.629 185.106C228.591 185.106 230.95 190.123 230.687 194.604C230.523 197.393 220.522 198.166 218.287 198.166C212.951 198.166 210.504 195.358 210.504 189.855" stroke="#B822FF" stroke-width="3" stroke-linecap="round"/>
<path d="M210.236 211.296C214.736 211.296 222.326 211.225 224.751 211.225" stroke="#B822FF" stroke-width="3" stroke-linecap="round"/>
<path d="M332.236 184.295C336.236 180.295 337.736 180.795 341.097 181.281C346.736 182.796 350.777 183.731 351.65 188.536C352.813 194.931 331.6 196.824 331.6 185.106" stroke="#B822FF" stroke-width="3" stroke-linecap="round"/>
<path d="M337.736 203.296C340.236 203.296 346.364 203.296 348.236 203.296" stroke="#B822FF" stroke-width="3" stroke-linecap="round"/>
<path d="M177.262 167.298C175.668 167.099 178.832 142.855 179.043 139.992C179.858 128.913 179.964 116.903 174.888 106.75" stroke="#B822FF" stroke-width="3" stroke-linecap="round"/>
<path d="M396.897 170.86C396.234 164.229 392.685 158.256 392.28 151.271C391.649 140.391 394.643 130.328 396.897 119.81" stroke="#B822FF" stroke-width="3" stroke-linecap="round"/>
<path d="M305.631 251.661C307.567 251.877 304.886 257.679 304.402 258.495C303.55 259.934 302.999 261.215 301.904 262.54C300.738 263.951 298.815 265.451 297.072 266.019C293.23 267.271 289.175 267.868 285.13 267.538C282.64 267.335 280.228 265.892 278.047 264.777C274.269 262.845 271.465 259.489 269.46 255.803C268.19 253.468 266.914 250.615 266.616 247.934C266.403 246.01 266.215 244.017 265.76 242.136C265.082 239.323 265.025 236.182 264.021 233.466C262.468 229.264 261.828 224.47 260.777 220.102C260.158 217.531 260.11 215.029 259.658 212.453C258.946 208.388 257.767 204.626 256.428 200.719" stroke="#B822FF" stroke-width="3" stroke-linecap="round"/>
<path d="M188.867 153.284C190.754 152.34 192.37 150.946 194.306 150.078C199.134 147.914 205.141 148.23 210.315 147.909C215.91 147.563 221.595 147.663 227.199 147.764C231.139 147.835 235.055 148.622 238.984 148.622" stroke="#B822FF" stroke-width="3" stroke-linecap="round"/>
<path d="M187.41 153.284C186.093 153.119 186.536 147.21 186.536 146.307C186.536 144.94 187.118 143.75 187.118 142.503" stroke="#B822FF" stroke-width="3" stroke-linecap="round"/>
<path d="M187.119 142.503C187.331 140.379 190.999 139.122 192.606 138.715C199.386 136.996 206.718 136.129 213.699 136.092C219.126 136.064 224.607 135.88 230.016 136.384C230.804 136.457 232.14 136.726 232.865 137.031C234.366 137.663 235.813 138.132 237.527 138.132C238.79 138.132 240.068 138.715 241.315 138.715" stroke="#B822FF" stroke-width="3" stroke-linecap="round"/>
<path d="M241.898 139.006C241.898 141.969 241.96 144.647 241.023 147.456" stroke="#B822FF" stroke-width="3" stroke-linecap="round"/>
<path d="M321.969 145.131C317.566 145.131 317.07 143.225 315.409 139.57C314.487 137.541 313.733 135.461 312.736 133.468" stroke="#B822FF" stroke-width="3" stroke-linecap="round"/>
<path d="M312.736 133.468C315.097 131.108 320.165 131.89 323.184 132.037C329.746 132.358 336.49 134.573 343.027 135.412C356.787 137.179 370.244 141.285 383.684 144.645" stroke="#B822FF" stroke-width="3" stroke-linecap="round"/>
<path d="M321.236 145.295C323.236 145.295 331.236 146.295 333.736 146.295C344.736 147.295 351.467 148.317 362.236 148.795C366.793 148.998 372.05 150.31 376.584 150.017C378.632 149.885 380.298 150.476 382.227 150.476" stroke="#B822FF" stroke-width="3" stroke-linecap="round"/>
<path d="M382.227 150.476C383.176 149.408 383.198 147.938 383.198 146.589" stroke="#B822FF" stroke-width="3" stroke-linecap="round"/>
<path d="M282.078 102.809C273.592 102.809 264.439 96.5489 256.606 93.4839C242.529 87.9757 224.57 87.8642 209.634 88.0442C190.107 88.2794 168.166 98.3724 165.469 119.949C164.931 124.252 164.735 128.338 164.735 132.728C164.735 135.236 169.392 143.168 163.353 138.988C159.881 136.584 156.479 130.783 153.855 127.504C152.868 126.27 149.397 123.095 149.193 121.46C148.431 115.368 148.15 133.729 146.818 139.722C145.931 143.714 144.53 146.503 144.53 150.601C144.53 151.598 144.772 155.808 142.631 153.666C138.821 149.857 136.298 142.931 133.694 138.211C131.868 134.901 129.717 131.017 129.031 127.245C128.508 124.368 128.326 121.991 126.311 125.734C124.823 128.497 124.028 132.517 121.605 134.67C120.158 135.957 119.326 137.818 117.936 139.16C115.296 141.709 111.831 143.379 109.129 145.982C108.758 146.338 104.311 150.209 104.164 149.694C103.441 147.164 104.098 143.385 104.121 140.801C104.253 125.627 101.479 106.597 109.129 93.4839C115.846 81.9686 127.166 67.5282 137.717 59.7956C153.837 47.9812 174.739 35.6007 193.217 28.2955C210.062 21.636 235.593 20.7955 253.717 20.7955C261.973 20.7955 277.559 20.7955 285.717 20.7955" stroke="#B822FF" stroke-width="3" stroke-linecap="round"/>
<path d="M240.742 21.0444C247.62 21.0444 254.678 18.2587 261.378 16.8135C271.838 14.5575 281.064 13.2733 291.772 13.2733C306.268 13.2733 320.01 17.3753 334.34 18.5404C340.981 19.0803 348.442 19.5282 354.803 21.6488C359.2 23.1142 362.638 24.9453 367.064 25.7502C372.856 26.8032 378.228 30.4878 383.081 33.5212C392.062 39.1339 399.904 45.7129 407.906 52.6035C422.983 65.5871 435.711 83.1533 445.293 100.482C450.29 109.518 452.692 118.986 456 128.673C457.997 134.523 457.604 141.853 460.706 147.281C462.504 150.429 464.933 155.645 465.325 159.369C465.661 162.564 465.783 163.446 462.389 159.973C457.639 155.113 455.674 147.972 451.51 142.618C448.061 138.184 448.857 142.461 449.049 146.59C449.358 153.23 450.56 159.573 450.56 166.277C450.56 168.593 450.185 166.052 449.697 165.111C447.336 160.558 444.999 155.952 442.012 151.771C438.666 147.087 435.281 142.439 431.953 137.74C431.678 137.351 427.314 131.369 427.247 133.12C426.927 141.436 428.024 166.396 428.024 158.074C428.024 154.743 426.425 151.971 424.916 149.094C421.103 141.828 418.085 134.158 414.079 126.99C410.507 120.596 404.87 115.355 398.149 112.397C391.251 109.362 385.089 105.084 378.117 102.295C366.555 97.6705 354.434 95.6843 342.154 93.7037C335.012 92.5518 327.578 91.7989 320.352 91.1565C316.729 90.8345 308.547 89.5852 305.241 91.9336C300.755 95.1212 296.585 98.4006 291.858 101.259C288.181 103.482 283.707 104.804 280.374 107.303" stroke="#B822FF" stroke-width="3" stroke-linecap="round"/>
<path d="M271.543 321.933C278.977 321.933 286.541 322.478 293.773 320.416C305.682 317.021 316.288 310.64 326.62 304.045" stroke="#B822FF" stroke-width="3" stroke-linecap="round"/>
<path d="M239.378 353.17C239.378 366.578 237.868 379.35 234.022 392.304C229.29 408.245 219.214 420.884 210.847 434.828" stroke="#B822FF" stroke-width="3" stroke-linecap="round"/>
<path d="M340.713 353.17C340.713 368.346 342.411 383.513 343.446 398.645C344.388 412.426 344.236 413.295 346.736 429.795" stroke="#B822FF" stroke-width="3" stroke-linecap="round"/>
<path d="M19 503.696C19 480.946 37.4589 462.508 54.4726 449.093C81.7291 427.603 118.023 426.957 151.325 426.957C172.15 426.957 192.974 426.957 213.799 426.957" stroke="#B822FF" stroke-width="3" stroke-linecap="round"/>
<path d="M346.616 429.909C350.613 429.909 354.569 429.503 358.422 428.433C367.438 425.929 377.47 428.139 386.079 430.291C410.277 436.341 434.959 440.019 458.226 449.804C471.47 455.374 484.782 461.93 495.065 472.213C503.911 481.059 509.483 490.92 515.398 501.674C522.282 514.19 525.674 528.71 525.674 543.049" stroke="#B822FF" stroke-width="3" stroke-linecap="round"/>
<path d="M210.847 433.844C213.249 434.144 214.873 448.295 216.236 450.795C222.236 461.795 225.881 467.358 233.736 475.795C240.852 483.439 245.736 486.795 254.236 495.295C261.236 502.295 259.236 500.295 268.736 508.795C271.647 511.399 271.236 511.295 274.736 514.795" stroke="#B822FF" stroke-width="3" stroke-linecap="round"/>
<path d="M275.78 393.507C277.314 393.848 279.278 396.193 280.481 397.224C282.39 398.86 287.072 399.13 289.554 399.355C293.501 399.714 302.727 400.228 304.311 395.475" stroke="#B822FF" stroke-width="3" stroke-linecap="round"/>
<path d="M346.259 430.057C346.851 430.945 346.487 432.516 346.532 433.527C346.623 435.571 346.036 438.796 345.236 440.796C343.236 445.796 344.236 444.296 340.236 452.296C330.236 465.296 328.008 469.262 319.736 478.296C307.736 489.296 304.236 492.296 294.236 502.296C289.236 507.296 285.874 510.558 281.981 512.477C280.463 513.226 278.919 513.922 277.373 514.608C276.728 514.895 276.226 515.328 275.501 515.328" stroke="#B822FF" stroke-width="3" stroke-linecap="round"/>
<path d="M134.839 131.632C136.199 128.975 137.768 126.437 139.153 123.794C144.28 114.005 147.826 103.791 154.527 94.8085C166.311 79.0106 181.24 67.7359 199.614 60.7597C210.937 56.4607 222.103 54.4031 234.008 52.8804" stroke="#B822FF" stroke-width="3" stroke-linecap="round"/>
<path d="M160.725 120.694C160.725 109.985 161.602 99.8829 167.429 90.5144C175.811 77.0378 189.706 70.9397 204.476 67.0995" stroke="#B822FF" stroke-width="3" stroke-linecap="round"/>
<path d="M113.692 130.174C115.734 126.616 116.464 122.545 117.966 118.75C123.135 105.696 131.913 93.8675 139.821 82.3921C148.976 69.1083 158.812 54.6675 173.647 47.1685C187.368 40.2326 203.679 38.9031 218.695 36.8384" stroke="#B822FF" stroke-width="3" stroke-linecap="round"/>
<path d="M422.137 126.893C421.775 117.616 419.415 109.63 413.711 102.222C405.217 91.1915 393.181 83.0261 380.979 76.6194C364.016 67.7133 345.939 61.091 327.505 55.9592C319.929 53.8502 312.237 51.8788 304.414 50.9359C296.855 50.0248 289.354 50.3283 281.769 50.3283" stroke="#B822FF" stroke-width="3" stroke-linecap="round"/>
<path d="M293.071 29.5465C305.607 34.6335 319.474 36.0634 332.407 39.8766C350.18 45.117 366.933 53.4218 382.254 63.7776C397.889 74.3456 412.852 86.4436 424.972 101.006C430.731 107.925 436.427 115.304 439.232 123.976C440.371 127.495 440.523 130.917 440.933 134.549C441.235 137.222 441.825 139.871 441.825 142.57" stroke="#B822FF" stroke-width="3" stroke-linecap="round"/>
<path d="M311.301 25.1714C316.64 25.7943 321.869 27.4676 327.12 28.5743C335.294 30.2971 343.553 31.5168 351.689 33.4355C360.401 35.4898 369.236 37.7562 377.332 41.6591C384.981 45.3461 391.037 50.7315 396.676 56.9922C405.03 66.2673 412.989 75.4172 422.663 83.3846C428.774 88.4172 433.509 93.9622 438.705 99.8722C444.689 106.677 451.374 113.894 453.613 123.004C454.681 127.35 455.48 132.032 456.023 136.473C456.271 138.497 457.137 140.547 457.137 142.57" stroke="#B822FF" stroke-width="3" stroke-linecap="round"/>
<path d="M280.675 86.0583C280.798 84.7093 282.047 83.7675 283.025 82.9795C286.352 80.2992 290.511 78.8851 294.692 78.1993C308.267 75.9725 322.993 78.0528 336.417 80.0628C350.171 82.122 363.65 85.5145 376.684 90.3524C381.768 92.2392 386.494 94.5756 391.268 97.1176C393.161 98.1253 394.85 98.9152 396.251 100.561C398.628 103.354 401.742 105.708 404.636 107.934" stroke="#B822FF" stroke-width="3" stroke-linecap="round"/>
<path d="M268.279 86.4229C267.755 85.2433 262.595 84.1944 261.555 83.7897C252.32 80.1986 242.339 78.674 232.529 77.6929C225.785 77.0185 216.506 74.8785 210.026 77.8955C208.133 78.7765 206.659 80.2291 205.205 81.6832" stroke="#B822FF" stroke-width="3" stroke-linecap="round"/>
<path d="M269.008 67.0995C250.789 66.8103 232.386 65.1287 214.178 66.2285C207.255 66.6466 200.327 67.8079 193.801 70.1985C192.444 70.6956 187.512 71.6868 186.975 73.2975" stroke="#B822FF" stroke-width="3" stroke-linecap="round"/>
<path d="M208.851 38.6614C209.247 38.0267 210.778 38.3077 211.403 38.2765C213.808 38.1562 216.184 37.5794 218.593 37.4055C227.602 36.7554 236.73 37.2694 245.755 37.203C255.436 37.1318 264.957 34.823 274.477 37.203" stroke="#B822FF" stroke-width="3" stroke-linecap="round"/>
<path d="M228.903 53.245C234.893 51.9913 241.194 52.1809 247.295 51.7866C255.621 51.2484 263.942 50.3282 272.29 50.3282" stroke="#B822FF" stroke-width="3" stroke-linecap="round"/>
<path d="M103.151 107.831C103.7 104.815 105.991 101.768 107.058 98.8889C110.812 88.76 112.317 78.0035 115.697 67.7636C118.271 59.9645 121.445 52.9277 127.548 47.2739C136.24 39.2209 146.779 33.3532 157.154 27.7826C188.558 10.9212 224.303 2.78229 259.82 0.781358C270.305 0.190653 280.33 -0.319947 290.684 1.56274" stroke="#B822FF" stroke-width="3" stroke-linecap="round"/>
<path d="M285.998 1.59747C290.518 1.59747 294.934 3.01857 299.053 4.86146C303.131 6.68573 309.359 5.6698 312.956 8.36722C314.786 9.74022 318.503 10.4761 320.813 11.6312C322.776 12.6127 324.407 13.7303 326.253 14.6534" stroke="#B822FF" stroke-width="3" stroke-linecap="round"/>
<path d="M279.745 0C298.32 0 316.379 3.43983 334.615 6.6852C347.725 9.01825 361.758 10.0978 374.51 14.065C382.963 16.6948 391.412 22.0101 398.993 26.3501C415.027 35.53 426.001 47.8759 436.022 63.2924C443.387 74.6226 453.347 84.1447 459.073 96.5013C466.006 111.463 465.818 128.322 469.014 143.949C470.33 150.385 469.622 157.512 469.622 164.091" stroke="#B822FF" stroke-width="3" stroke-linecap="round"/>
<path d="M469.622 166.436C465.992 166.436 463.322 163.457 460.245 161.747" stroke="#B822FF" stroke-width="3" stroke-linecap="round"/>
<path d="M18.6135 502.215C18.8738 502.241 18.8692 502.696 18.888 502.881C18.9715 503.704 18.981 504.546 18.9841 505.372C18.9937 507.893 19.1121 510.397 19.1831 512.915C19.2276 514.49 19.2536 516.066 19.3273 517.64C19.4128 519.467 19.6533 521.225 20.0067 523.017C20.7357 526.713 20.6345 530.475 19.6155 534.115C19.1901 535.634 18.5432 537.212 17.8105 538.617C17.4534 539.301 16.9857 540.021 16.7468 540.758C16.5848 541.257 16.241 541.877 15.9575 542.302" stroke="#B822FF" stroke-width="3" stroke-linecap="round"/>
</g>
<defs>
<clipPath id="clip0_8_9">
<rect width="543" height="543" fill="white"/>
</clipPath>
</defs>
</svg>
