<svg class="generator__canvas" viewBox="0 0 200 200" xmlns="http://www.w3.org/2000/svg" version="1.1" xmlns:xlink="http://www.w3.org/1999/xlink" xmlns:svgjs="http://svgjs.dev/svgjs"><circle r="5" cx="5" cy="5" fill="#fd75ff" transform="matrix(0.30197316225412535,0,0,0.30197316225412535,3.4901341887293733,3.4901341887293733)"></circle><circle r="5" cx="5" cy="15" fill="#fd75ff" transform="matrix(0.34601892182809296,0,0,0.34601892182809296,3.2699053908595355,9.809716172578606)"></circle><circle r="5" cx="5" cy="25" fill="#fd75ff" transform="matrix(0.3739564242516915,0,0,0.3739564242516915,3.1302178787415427,15.651089393707712)"></circle><circle r="5" cx="5" cy="35" fill="#fd75ff" transform="matrix(0.38132170734503745,0,0,0.38132170734503745,3.0933914632748127,21.65374024292369)"></circle><circle r="5" cx="5" cy="45" fill="#fd75ff" transform="matrix(0.3700690124567817,0,0,0.3700690124567817,3.1496549377160914,28.346894439444824)"></circle><circle r="5" cx="5" cy="55" fill="#fd75ff" transform="matrix(0.348071266534523,0,0,0.348071266534523,3.259643667327385,35.85608034060124)"></circle><circle r="5" cx="5" cy="65" fill="#fd75ff" transform="matrix(0.3249651421895335,0,0,0.3249651421895335,3.3751742890523326,43.87726575768032)"></circle><circle r="5" cx="5" cy="75" fill="#fd75ff" transform="matrix(0.30517004724608565,0,0,0.30517004724608565,3.4741497637695717,52.11224645654357)"></circle><circle r="5" cx="5" cy="85" fill="#fd75ff" transform="matrix(0.2867824485889675,0,0,0.2867824485889675,3.5660877570551626,60.623491869937766)"></circle><circle r="5" cx="5" cy="95" fill="#fd75ff" transform="matrix(0.2667492668217817,0,0,0.2667492668217817,3.666253665891092,69.65881965193074)"></circle><circle r="5" cx="5" cy="105" fill="#fd75ff" transform="matrix(0.24417115305396617,0,0,0.24417115305396617,3.779144234730169,79.36202892933355)"></circle><circle r="5" cx="5" cy="115" fill="#fd75ff" transform="matrix(0.22044443492968693,0,0,0.22044443492968693,3.8977778253515654,89.64888998308601)"></circle><circle r="5" cx="5" cy="125" fill="#fd75ff" transform="matrix(0.19803234237936823,0,0,0.19803234237936823,4.009838288103159,100.24595720257898)"></circle><circle r="5" cx="5" cy="135" fill="#fd75ff" transform="matrix(0.17964098397278994,0,0,0.17964098397278994,4.10179508013605,110.74846716367335)"></circle><circle r="5" cx="5" cy="145" fill="#fd75ff" transform="matrix(0.16890215668097608,0,0,0.16890215668097608,4.15548921659512,120.50918728125848)"></circle><circle r="5" cx="5" cy="155" fill="#fd75ff" transform="matrix(0.16911615111363423,0,0,0.16911615111363423,4.154419244431828,128.7869965773867)"></circle><circle r="5" cx="5" cy="165" fill="#fd75ff" transform="matrix(0.18165416734749698,0,0,0.18165416734749698,4.0917291632625155,135.027062387663)"></circle><circle r="5" cx="5" cy="175" fill="#fd75ff" transform="matrix(0.20632607388717317,0,0,0.20632607388717317,3.9683696305641343,138.8929370697447)"></circle><circle r="5" cx="5" cy="185" fill="#fd75ff" transform="matrix(0.24155186228896494,0,0,0.24155186228896494,3.792240688555175,140.3129054765415)"></circle><circle r="5" cx="5" cy="195" fill="#fd75ff" transform="matrix(0.2840392375206428,0,0,0.2840392375206428,3.579803812396786,139.61234868347464)"></circle><circle r="5" cx="15" cy="5" fill="#fd75ff" transform="matrix(0.33732777752544546,0,0,0.33732777752544546,9.940083337118317,3.313361112372773)"></circle><circle r="5" cx="15" cy="15" fill="#fd75ff" transform="matrix(0.39404346380898314,0,0,0.39404346380898314,9.089348042865254,9.089348042865254)"></circle><circle r="5" cx="15" cy="25" fill="#fd75ff" transform="matrix(0.43361627783395473,0,0,0.43361627783395473,8.49575583249068,14.15959305415113)"></circle><circle r="5" cx="15" cy="35" fill="#fd75ff" transform="matrix(0.45109706137359173,0,0,0.45109706137359173,8.233544079396124,19.21160285192429)"></circle><circle r="5" cx="15" cy="45" fill="#fd75ff" transform="matrix(0.44800609431820104,0,0,0.44800609431820104,8.279908585226984,24.839725755680952)"></circle><circle r="5" cx="15" cy="55" fill="#fd75ff" transform="matrix(0.43150098423964545,0,0,0.43150098423964545,8.527485236405319,31.2674458668195)"></circle><circle r="5" cx="15" cy="65" fill="#fd75ff" transform="matrix(0.40961538497495753,0,0,0.40961538497495753,8.855769225375637,38.37499997662776)"></circle><circle r="5" cx="15" cy="75" fill="#fd75ff" transform="matrix(0.38415804206471754,0,0,0.38415804206471754,9.237629369029236,46.188146845146186)"></circle><circle r="5" cx="15" cy="85" fill="#fd75ff" transform="matrix(0.35238469082261137,0,0,0.35238469082261137,9.714229637660829,55.04730128007803)"></circle><circle r="5" cx="15" cy="95" fill="#fd75ff" transform="matrix(0.3131500036621268,0,0,0.3131500036621268,10.302749945068097,65.25074965209795)"></circle><circle r="5" cx="15" cy="105" fill="#fd75ff" transform="matrix(0.2690659613685485,0,0,0.2690659613685485,10.964010579471772,76.74807405630241)"></circle><circle r="5" cx="15" cy="115" fill="#fd75ff" transform="matrix(0.22552584670350415,0,0,0.22552584670350415,11.617112299447438,89.06452762909703)"></circle><circle r="5" cx="15" cy="125" fill="#fd75ff" transform="matrix(0.18836824004671157,0,0,0.18836824004671157,12.174476399299326,101.45396999416106)"></circle><circle r="5" cx="15" cy="135" fill="#fd75ff" transform="matrix(0.161838676348985,0,0,0.161838676348985,12.572419854765226,113.15177869288702)"></circle><circle r="5" cx="15" cy="145" fill="#fd75ff" transform="matrix(0.1484570184425353,0,0,0.1484570184425353,12.77314472336197,123.47373232583237)"></circle><circle r="5" cx="15" cy="155" fill="#fd75ff" transform="matrix(0.15101355020715054,0,0,0.15101355020715054,12.73479674689274,131.59289971789167)"></circle><circle r="5" cx="15" cy="165" fill="#fd75ff" transform="matrix(0.17116414777339273,0,0,0.17116414777339273,12.432537783399109,136.7579156173902)"></circle><circle r="5" cx="15" cy="175" fill="#fd75ff" transform="matrix(0.20778976208463562,0,0,0.20778976208463562,11.883153568730465,138.63679163518876)"></circle><circle r="5" cx="15" cy="185" fill="#fd75ff" transform="matrix(0.25727788073004837,0,0,0.25727788073004837,11.140831789049274,137.40359206494105)"></circle><circle r="5" cx="15" cy="195" fill="#fd75ff" transform="matrix(0.3133914004640237,0,0,0.3133914004640237,10.299128993039645,133.88867690951537)"></circle><circle r="5" cx="25" cy="5" fill="#fd75ff" transform="matrix(0.37794092958691977,0,0,0.37794092958691977,15.551476760327006,3.110295352065401)"></circle><circle r="5" cx="25" cy="15" fill="#fd75ff" transform="matrix(0.44471298741747634,0,0,0.44471298741747634,13.882175314563092,8.329305188737855)"></circle><circle r="5" cx="25" cy="25" fill="#fd75ff" transform="matrix(0.4952714576515165,0,0,0.4952714576515165,12.618213558712089,12.618213558712089)"></circle><circle r="5" cx="25" cy="35" fill="#fd75ff" transform="matrix(0.524286983877363,0,0,0.524286983877363,11.892825403065924,16.64995556429229)"></circle><circle r="5" cx="25" cy="45" fill="#fd75ff" transform="matrix(0.5325129446385343,0,0,0.5325129446385343,11.687176384036643,21.036917491265957)"></circle><circle r="5" cx="25" cy="55" fill="#fd75ff" transform="matrix(0.5254680672513994,0,0,0.5254680672513994,11.863298318715016,26.099256301173035)"></circle><circle r="5" cx="25" cy="65" fill="#fd75ff" transform="matrix(0.5080421433249562,0,0,0.5080421433249562,12.298946416876094,31.977260683877844)"></circle><circle r="5" cx="25" cy="75" fill="#fd75ff" transform="matrix(0.4790276988384562,0,0,0.4790276988384562,13.024307529038595,39.072922587115784)"></circle><circle r="5" cx="25" cy="85" fill="#fd75ff" transform="matrix(0.43541633002166263,0,0,0.43541633002166263,14.114591749458434,47.989611948158675)"></circle><circle r="5" cx="25" cy="95" fill="#fd75ff" transform="matrix(0.37807388264936514,0,0,0.37807388264936514,15.548152933765872,59.08298114831031)"></circle><circle r="5" cx="25" cy="105" fill="#fd75ff" transform="matrix(0.31298800454167836,0,0,0.31298800454167836,17.175299886458042,72.13625952312378)"></circle><circle r="5" cx="25" cy="115" fill="#fd75ff" transform="matrix(0.2494789307937385,0,0,0.2494789307937385,18.763026730156536,86.30992295872008)"></circle><circle r="5" cx="25" cy="125" fill="#fd75ff" transform="matrix(0.19704405245688023,0,0,0.19704405245688023,20.073898688577994,100.36949344288998)"></circle><circle r="5" cx="25" cy="135" fill="#fd75ff" transform="matrix(0.16238415163497058,0,0,0.16238415163497058,20.940396209125737,113.07813952927897)"></circle><circle r="5" cx="25" cy="145" fill="#fd75ff" transform="matrix(0.1481096204776846,0,0,0.1481096204776846,21.297259488057886,123.52410503073574)"></circle><circle r="5" cx="25" cy="155" fill="#fd75ff" transform="matrix(0.1545520719248496,0,0,0.1545520719248496,21.13619820187876,131.04442885164832)"></circle><circle r="5" cx="25" cy="165" fill="#fd75ff" transform="matrix(0.1822226623761421,0,0,0.1822226623761421,20.44443344059645,134.93326070793654)"></circle><circle r="5" cx="25" cy="175" fill="#fd75ff" transform="matrix(0.2292304005590355,0,0,0.2292304005590355,19.26923998602411,134.88467990216878)"></circle><circle r="5" cx="25" cy="185" fill="#fd75ff" transform="matrix(0.2899616012363659,0,0,0.2899616012363659,17.750959969090854,131.3571037712723)"></circle><circle r="5" cx="25" cy="195" fill="#fd75ff" transform="matrix(0.3556078748847301,0,0,0.3556078748847301,16.109803127881747,125.65646439747763)"></circle><circle r="5" cx="35" cy="5" fill="#fd75ff" transform="matrix(0.411827240539929,0,0,0.411827240539929,20.586046581102487,2.9408637973003553)"></circle><circle r="5" cx="35" cy="15" fill="#fd75ff" transform="matrix(0.4839064863172043,0,0,0.4839064863172043,18.06327297889785,7.741402705241936)"></circle><circle r="5" cx="35" cy="25" fill="#fd75ff" transform="matrix(0.5430575008260746,0,0,0.5430575008260746,15.992987471087389,11.423562479348135)"></circle><circle r="5" cx="35" cy="35" fill="#fd75ff" transform="matrix(0.583759836080064,0,0,0.583759836080064,14.56840573719776,14.56840573719776)"></circle><circle r="5" cx="35" cy="45" fill="#fd75ff" transform="matrix(0.6055992593489558,0,0,0.6055992593489558,13.804025922786547,17.74803332929699)"></circle><circle r="5" cx="35" cy="55" fill="#fd75ff" transform="matrix(0.6112932763770534,0,0,0.6112932763770534,13.60473532680313,21.378869799262063)"></circle><circle r="5" cx="35" cy="65" fill="#fd75ff" transform="matrix(0.6014936354167781,0,0,0.6014936354167781,13.947722760412766,25.90291369790942)"></circle><circle r="5" cx="35" cy="75" fill="#fd75ff" transform="matrix(0.5724796402943189,0,0,0.5724796402943189,14.963212589698841,32.06402697792608)"></circle><circle r="5" cx="35" cy="85" fill="#fd75ff" transform="matrix(0.5211823642044271,0,0,0.5211823642044271,16.758617252845053,40.6994990426237)"></circle><circle r="5" cx="35" cy="95" fill="#fd75ff" transform="matrix(0.4501638799782015,0,0,0.4501638799782015,19.24426420076295,52.234431402070854)"></circle><circle r="5" cx="35" cy="105" fill="#fd75ff" transform="matrix(0.3682383644239918,0,0,0.3682383644239918,22.111657245160288,66.33497173548085)"></circle><circle r="5" cx="35" cy="115" fill="#fd75ff" transform="matrix(0.28812911307015,0,0,0.28812911307015,24.915481042544748,81.86515199693275)"></circle><circle r="5" cx="35" cy="125" fill="#fd75ff" transform="matrix(0.22273443804468654,0,0,0.22273443804468654,27.20429466843597,97.15819524441419)"></circle><circle r="5" cx="35" cy="135" fill="#fd75ff" transform="matrix(0.1814486796117827,0,0,0.1814486796117827,28.649296213587604,110.50442825240933)"></circle><circle r="5" cx="35" cy="145" fill="#fd75ff" transform="matrix(0.16793093446988694,0,0,0.16793093446988694,29.12241729355396,120.6500145018664)"></circle><circle r="5" cx="35" cy="155" fill="#fd75ff" transform="matrix(0.1807334566817821,0,0,0.1807334566817821,28.674329016137627,126.98631421432378)"></circle><circle r="5" cx="35" cy="165" fill="#fd75ff" transform="matrix(0.21725924959232104,0,0,0.21725924959232104,27.395926264268763,129.15222381726704)"></circle><circle r="5" cx="35" cy="175" fill="#fd75ff" transform="matrix(0.27369035465115354,0,0,0.27369035465115354,25.420837587209625,127.10418793604813)"></circle><circle r="5" cx="35" cy="185" fill="#fd75ff" transform="matrix(0.34224484967418733,0,0,0.34224484967418733,23.021430261403445,121.68470281027534)"></circle><circle r="5" cx="35" cy="195" fill="#fd75ff" transform="matrix(0.4129382814330329,0,0,0.4129382814330329,20.547160149843847,114.47703512055858)"></circle><circle r="5" cx="45" cy="5" fill="#fd75ff" transform="matrix(0.4288135489809534,0,0,0.4288135489809534,25.703390295857098,2.855932255095233)"></circle><circle r="5" cx="45" cy="15" fill="#fd75ff" transform="matrix(0.500367782417374,0,0,0.500367782417374,22.48344979121817,7.49448326373939)"></circle><circle r="5" cx="45" cy="25" fill="#fd75ff" transform="matrix(0.5645877032146488,0,0,0.5645877032146488,19.593553355340806,10.88530741963378)"></circle><circle r="5" cx="45" cy="35" fill="#fd75ff" transform="matrix(0.6159923396669064,0,0,0.6159923396669064,17.280344714989212,13.440268111658277)"></circle><circle r="5" cx="45" cy="45" fill="#fd75ff" transform="matrix(0.6524615766929807,0,0,0.6524615766929807,15.63922904881587,15.63922904881587)"></circle><circle r="5" cx="45" cy="55" fill="#fd75ff" transform="matrix(0.6726105745732416,0,0,0.6726105745732416,14.732524144204127,18.006418398471716)"></circle><circle r="5" cx="45" cy="65" fill="#fd75ff" transform="matrix(0.673033320145884,0,0,0.673033320145884,14.71350059343522,21.25283419051754)"></circle><circle r="5" cx="45" cy="75" fill="#fd75ff" transform="matrix(0.6482105443667561,0,0,0.6482105443667561,15.830525503495977,26.384209172493293)"></circle><circle r="5" cx="45" cy="85" fill="#fd75ff" transform="matrix(0.5949542969182867,0,0,0.5949542969182867,18.227056638677098,34.42888476194563)"></circle><circle r="5" cx="45" cy="95" fill="#fd75ff" transform="matrix(0.5169735463566256,0,0,0.5169735463566256,21.736190413951846,45.887513096120564)"></circle><circle r="5" cx="45" cy="105" fill="#fd75ff" transform="matrix(0.42511498357729643,0,0,0.42511498357729643,25.86982573902166,60.362926724383875)"></circle><circle r="5" cx="45" cy="115" fill="#fd75ff" transform="matrix(0.33468387945444483,0,0,0.33468387945444483,29.93922542454998,76.51135386273884)"></circle><circle r="5" cx="45" cy="125" fill="#fd75ff" transform="matrix(0.26132850274499997,0,0,0.26132850274499997,33.240217376475,92.33393715687501)"></circle><circle r="5" cx="45" cy="135" fill="#fd75ff" transform="matrix(0.21684080020061977,0,0,0.21684080020061977,35.24216399097211,105.72649197291634)"></circle><circle r="5" cx="45" cy="145" fill="#fd75ff" transform="matrix(0.20616835148175222,0,0,0.20616835148175222,35.72242418332115,115.10558903514593)"></circle><circle r="5" cx="45" cy="155" fill="#fd75ff" transform="matrix(0.22694803691946708,0,0,0.22694803691946708,34.78733833862398,119.82305427748261)"></circle><circle r="5" cx="45" cy="165" fill="#fd75ff" transform="matrix(0.2728124563055753,0,0,0.2728124563055753,32.72343946624911,119.98594470958008)"></circle><circle r="5" cx="45" cy="175" fill="#fd75ff" transform="matrix(0.33692823742389144,0,0,0.33692823742389144,29.838229315924885,116.037558450819)"></circle><circle r="5" cx="45" cy="185" fill="#fd75ff" transform="matrix(0.4102518721454906,0,0,0.4102518721454906,26.538665753452925,109.10340365308424)"></circle><circle r="5" cx="45" cy="195" fill="#fd75ff" transform="matrix(0.48227002583014633,0,0,0.48227002583014633,23.297848837643414,100.95734496312147)"></circle><circle r="5" cx="55" cy="5" fill="#fd75ff" transform="matrix(0.42305297250477825,0,0,0.42305297250477825,31.732086512237196,2.8847351374761088)"></circle><circle r="5" cx="55" cy="15" fill="#fd75ff" transform="matrix(0.488933782574671,0,0,0.488933782574671,28.108641958393093,7.665993261379935)"></circle><circle r="5" cx="55" cy="25" fill="#fd75ff" transform="matrix(0.5546484462658074,0,0,0.5546484462658074,24.49433545538059,11.133788843354814)"></circle><circle r="5" cx="55" cy="35" fill="#fd75ff" transform="matrix(0.614964338132177,0,0,0.614964338132177,21.176961402730264,13.476248165373804)"></circle><circle r="5" cx="55" cy="45" fill="#fd75ff" transform="matrix(0.6652921315320002,0,0,0.6652921315320002,18.40893276573999,15.061854081059991)"></circle><circle r="5" cx="55" cy="55" fill="#fd75ff" transform="matrix(0.6996079843234321,0,0,0.6996079843234321,16.52156086221124,16.52156086221124)"></circle><circle r="5" cx="55" cy="65" fill="#fd75ff" transform="matrix(0.7118047547272021,0,0,0.7118047547272021,15.850738490003884,18.732690942731864)"></circle><circle r="5" cx="55" cy="75" fill="#fd75ff" transform="matrix(0.6950822377086777,0,0,0.6950822377086777,16.770476926022724,22.86883217184917)"></circle><circle r="5" cx="55" cy="85" fill="#fd75ff" transform="matrix(0.6459755005290859,0,0,0.6459755005290859,19.471347470900277,30.092082455027693)"></circle><circle r="5" cx="55" cy="95" fill="#fd75ff" transform="matrix(0.5687005902663633,0,0,0.5687005902663633,23.721467535350016,40.97344392469548)"></circle><circle r="5" cx="55" cy="105" fill="#fd75ff" transform="matrix(0.4752245941943294,0,0,0.4752245941943294,28.862647319311883,55.101417609595416)"></circle><circle r="5" cx="55" cy="115" fill="#fd75ff" transform="matrix(0.3824296108545577,0,0,0.3824296108545577,33.96637140299933,71.02059475172587)"></circle><circle r="5" cx="55" cy="125" fill="#fd75ff" transform="matrix(0.3077727951351761,0,0,0.3077727951351761,38.07249626756531,86.528400608103)"></circle><circle r="5" cx="55" cy="135" fill="#fd75ff" transform="matrix(0.2647097745890449,0,0,0.2647097745890449,40.44096239760253,99.26418043047894)"></circle><circle r="5" cx="55" cy="145" fill="#fd75ff" transform="matrix(0.2590869829418975,0,0,0.2590869829418975,40.75021593819564,107.43238747342485)"></circle><circle r="5" cx="55" cy="155" fill="#fd75ff" transform="matrix(0.28774510537240966,0,0,0.28774510537240966,39.17401920451747,110.3995086672765)"></circle><circle r="5" cx="55" cy="165" fill="#fd75ff" transform="matrix(0.3412234547696682,0,0,0.3412234547696682,36.232709987668244,108.69812996300475)"></circle><circle r="5" cx="55" cy="175" fill="#fd75ff" transform="matrix(0.4101082750916184,0,0,0.4101082750916184,32.44404486996099,103.23105185896678)"></circle><circle r="5" cx="55" cy="185" fill="#fd75ff" transform="matrix(0.4847573045847401,0,0,0.4847573045847401,28.338348247839296,95.31989865182308)"></circle><circle r="5" cx="55" cy="195" fill="#fd75ff" transform="matrix(0.554514114126337,0,0,0.554514114126337,24.501723723051466,86.86974774536428)"></circle><circle r="5" cx="65" cy="5" fill="#fd75ff" transform="matrix(0.3933177785771041,0,0,0.3933177785771041,39.434344392488235,3.0334111071144796)"></circle><circle r="5" cx="65" cy="15" fill="#fd75ff" transform="matrix(0.45116054822480023,0,0,0.45116054822480023,35.67456436538799,8.232591776627997)"></circle><circle r="5" cx="65" cy="25" fill="#fd75ff" transform="matrix(0.5162143015233294,0,0,0.5162143015233294,31.446070400983594,12.094642461916767)"></circle><circle r="5" cx="65" cy="35" fill="#fd75ff" transform="matrix(0.583259085412903,0,0,0.583259085412903,27.088159448161306,14.585932010548397)"></circle><circle r="5" cx="65" cy="45" fill="#fd75ff" transform="matrix(0.6446165045930607,0,0,0.6446165045930607,23.099927201451052,15.992257293312267)"></circle><circle r="5" cx="65" cy="55" fill="#fd75ff" transform="matrix(0.6912440850212831,0,0,0.6912440850212831,20.0691344736166,16.981575323829432)"></circle><circle r="5" cx="65" cy="65" fill="#fd75ff" transform="matrix(0.7154855838222024,0,0,0.7154855838222024,18.493437051556846,18.493437051556846)"></circle><circle r="5" cx="65" cy="75" fill="#fd75ff" transform="matrix(0.7097462173949715,0,0,0.7097462173949715,18.866495869326855,21.76903369537714)"></circle><circle r="5" cx="65" cy="85" fill="#fd75ff" transform="matrix(0.6701562854446027,0,0,0.6701562854446027,21.43984144610082,28.036715737208773)"></circle><circle r="5" cx="65" cy="95" fill="#fd75ff" transform="matrix(0.6008159076310575,0,0,0.6008159076310575,25.94696600398126,37.92248877504954)"></circle><circle r="5" cx="65" cy="105" fill="#fd75ff" transform="matrix(0.5138707782890891,0,0,0.5138707782890891,31.598399411209208,51.04356827964564)"></circle><circle r="5" cx="65" cy="115" fill="#fd75ff" transform="matrix(0.4266636602786844,0,0,0.4266636602786844,37.26686208188551,65.93367906795129)"></circle><circle r="5" cx="65" cy="125" fill="#fd75ff" transform="matrix(0.35729056236988394,0,0,0.35729056236988394,41.77611344595755,80.33867970376451)"></circle><circle r="5" cx="65" cy="135" fill="#fd75ff" transform="matrix(0.31975518388793245,0,0,0.31975518388793245,44.21591304728439,91.83305017512912)"></circle><circle r="5" cx="65" cy="145" fill="#fd75ff" transform="matrix(0.32001584667822364,0,0,0.32001584667822364,44.19896996591547,98.59770223165756)"></circle><circle r="5" cx="65" cy="155" fill="#fd75ff" transform="matrix(0.35451914969503184,0,0,0.35451914969503184,41.95625526982293,100.04953179727006)"></circle><circle r="5" cx="65" cy="165" fill="#fd75ff" transform="matrix(0.41253811723462913,0,0,0.41253811723462913,38.18502237974911,96.9312106562862)"></circle><circle r="5" cx="65" cy="175" fill="#fd75ff" transform="matrix(0.4827479021277401,0,0,0.4827479021277401,33.62138636169689,90.51911712764549)"></circle><circle r="5" cx="65" cy="185" fill="#fd75ff" transform="matrix(0.5551355543134374,0,0,0.5551355543134374,28.916188969626567,82.29992245201407)"></circle><circle r="5" cx="65" cy="195" fill="#fd75ff" transform="matrix(0.6192891388627808,0,0,0.6192891388627808,24.746205973919245,74.23861792175774)"></circle><circle r="5" cx="75" cy="5" fill="#fd75ff" transform="matrix(0.3434831690618019,0,0,0.3434831690618019,49.238762320364856,3.2825841546909906)"></circle><circle r="5" cx="75" cy="15" fill="#fd75ff" transform="matrix(0.3932394783427227,0,0,0.3932394783427227,45.5070391242958,9.101407824859159)"></circle><circle r="5" cx="75" cy="25" fill="#fd75ff" transform="matrix(0.4571936417254895,0,0,0.4571936417254895,40.71047687058829,13.570158956862763)"></circle><circle r="5" cx="75" cy="35" fill="#fd75ff" transform="matrix(0.5285826742098132,0,0,0.5285826742098132,35.35629943426401,16.49960640265654)"></circle><circle r="5" cx="75" cy="45" fill="#fd75ff" transform="matrix(0.5975285322141892,0,0,0.5975285322141892,30.185360083935805,18.111216050361485)"></circle><circle r="5" cx="75" cy="55" fill="#fd75ff" transform="matrix(0.6540049890515937,0,0,0.6540049890515937,25.949625821130475,19.02972560216235)"></circle><circle r="5" cx="75" cy="65" fill="#fd75ff" transform="matrix(0.6895046782548211,0,0,0.6895046782548211,23.287149130888416,20.18219591343663)"></circle><circle r="5" cx="75" cy="75" fill="#fd75ff" transform="matrix(0.6962162761044441,0,0,0.6962162761044441,22.78377929216669,22.78377929216669)"></circle><circle r="5" cx="75" cy="85" fill="#fd75ff" transform="matrix(0.6698659458476154,0,0,0.6698659458476154,24.760054061428846,28.061394602952696)"></circle><circle r="5" cx="75" cy="95" fill="#fd75ff" transform="matrix(0.6139058630500858,0,0,0.6139058630500858,28.95706027124357,36.67894301024185)"></circle><circle r="5" cx="75" cy="105" fill="#fd75ff" transform="matrix(0.5397446150374293,0,0,0.5397446150374293,34.5191538721928,48.326815421069924)"></circle><circle r="5" cx="75" cy="115" fill="#fd75ff" transform="matrix(0.46404166465411756,0,0,0.46404166465411756,40.19687515094118,61.635208564776484)"></circle><circle r="5" cx="75" cy="125" fill="#fd75ff" transform="matrix(0.40434569788087676,0,0,0.40434569788087676,44.67407265893424,74.45678776489041)"></circle><circle r="5" cx="75" cy="135" fill="#fd75ff" transform="matrix(0.3743242492306325,0,0,0.3743242492306325,46.92568130770256,84.46622635386461)"></circle><circle r="5" cx="75" cy="145" fill="#fd75ff" transform="matrix(0.37993215035565353,0,0,0.37993215035565353,46.50508872332598,89.90983819843024)"></circle><circle r="5" cx="75" cy="155" fill="#fd75ff" transform="matrix(0.4177337213450784,0,0,0.4177337213450784,43.66997089911912,90.25127319151285)"></circle><circle r="5" cx="75" cy="165" fill="#fd75ff" transform="matrix(0.4767244476287129,0,0,0.4767244476287129,39.24566642784653,86.34046614126237)"></circle><circle r="5" cx="75" cy="175" fill="#fd75ff" transform="matrix(0.5446309845567988,0,0,0.5446309845567988,34.15267615824009,79.68957770256021)"></circle><circle r="5" cx="75" cy="185" fill="#fd75ff" transform="matrix(0.611406097341727,0,0,0.611406097341727,29.144542699370476,71.8898719917805)"></circle><circle r="5" cx="75" cy="195" fill="#fd75ff" transform="matrix(0.6671860543216881,0,0,0.6671860543216881,24.961045925873393,64.89871940727082)"></circle><circle r="5" cx="85" cy="5" fill="#fd75ff" transform="matrix(0.2832230058987526,0,0,0.2832230058987526,60.92604449860603,3.583884970506237)"></circle><circle r="5" cx="85" cy="15" fill="#fd75ff" transform="matrix(0.3254327273033748,0,0,0.3254327273033748,57.33821817921314,10.118509090449379)"></circle><circle r="5" cx="85" cy="25" fill="#fd75ff" transform="matrix(0.3866548426287795,0,0,0.3866548426287795,52.13433837655374,15.333628934280512)"></circle><circle r="5" cx="85" cy="35" fill="#fd75ff" transform="matrix(0.4590879746337369,0,0,0.4590879746337369,45.977522156132366,18.93192088781921)"></circle><circle r="5" cx="85" cy="45" fill="#fd75ff" transform="matrix(0.5325470297142936,0,0,0.5325470297142936,39.733502474285046,21.035383662856788)"></circle><circle r="5" cx="85" cy="55" fill="#fd75ff" transform="matrix(0.5965143380803006,0,0,0.5965143380803006,34.29628126317445,22.19171140558346)"></circle><circle r="5" cx="85" cy="65" fill="#fd75ff" transform="matrix(0.6419120960681204,0,0,0.6419120960681204,30.437471834209767,23.275713755572177)"></circle><circle r="5" cx="85" cy="75" fill="#fd75ff" transform="matrix(0.661100252521653,0,0,0.661100252521653,28.806478535659494,25.41748106087602)"></circle><circle r="5" cx="85" cy="85" fill="#fd75ff" transform="matrix(0.649522275383529,0,0,0.649522275383529,29.79060659240003,29.79060659240003)"></circle><circle r="5" cx="85" cy="95" fill="#fd75ff" transform="matrix(0.609777191919889,0,0,0.609777191919889,33.16893868680943,37.07116676761054)"></circle><circle r="5" cx="85" cy="105" fill="#fd75ff" transform="matrix(0.5521125743131787,0,0,0.5521125743131787,38.07043118337981,47.02817969711624)"></circle><circle r="5" cx="85" cy="115" fill="#fd75ff" transform="matrix(0.49171659644646964,0,0,0.49171659644646964,43.20408930205008,58.45259140865599)"></circle><circle r="5" cx="85" cy="125" fill="#fd75ff" transform="matrix(0.44463252869958264,0,0,0.44463252869958264,47.20623506053548,69.42093391255217)"></circle><circle r="5" cx="85" cy="135" fill="#fd75ff" transform="matrix(0.42341292438234557,0,0,0.42341292438234557,49.00990142750063,77.83925520838335)"></circle><circle r="5" cx="85" cy="145" fill="#fd75ff" transform="matrix(0.4335397965895569,0,0,0.4335397965895569,48.14911728988766,82.13672949451424)"></circle><circle r="5" cx="85" cy="155" fill="#fd75ff" transform="matrix(0.4717369792127889,0,0,0.4717369792127889,44.902356766912945,81.88076822201772)"></circle><circle r="5" cx="85" cy="165" fill="#fd75ff" transform="matrix(0.5274740438914198,0,0,0.5274740438914198,40.16470626922931,77.96678275791572)"></circle><circle r="5" cx="85" cy="175" fill="#fd75ff" transform="matrix(0.5888047867020656,0,0,0.5888047867020656,34.951593130324426,71.95916232713851)"></circle><circle r="5" cx="85" cy="185" fill="#fd75ff" transform="matrix(0.6464472022220666,0,0,0.6464472022220666,30.051987811124334,65.40726758891768)"></circle><circle r="5" cx="85" cy="195" fill="#fd75ff" transform="matrix(0.6910339817813125,0,0,0.6910339817813125,26.262111548588436,60.24837355264407)"></circle><circle r="5" cx="95" cy="5" fill="#fd75ff" transform="matrix(0.22538134493180656,0,0,0.22538134493180656,73.58877223147837,3.8730932753409673)"></circle><circle r="5" cx="95" cy="15" fill="#fd75ff" transform="matrix(0.259175082038096,0,0,0.259175082038096,70.37836720638087,11.11237376942856)"></circle><circle r="5" cx="95" cy="25" fill="#fd75ff" transform="matrix(0.31455378304142023,0,0,0.31455378304142023,65.11739061106508,17.136155423964496)"></circle><circle r="5" cx="95" cy="35" fill="#fd75ff" transform="matrix(0.38444980454374134,0,0,0.38444980454374134,58.47726856834457,21.544256840969055)"></circle><circle r="5" cx="95" cy="45" fill="#fd75ff" transform="matrix(0.45895329510579674,0,0,0.45895329510579674,51.39943696494931,24.347101720239145)"></circle><circle r="5" cx="95" cy="55" fill="#fd75ff" transform="matrix(0.5274338854765186,0,0,0.5274338854765186,44.893780879730734,25.991136298791478)"></circle><circle r="5" cx="95" cy="65" fill="#fd75ff" transform="matrix(0.5804330440306514,0,0,0.5804330440306514,39.858860817088114,27.27185213800766)"></circle><circle r="5" cx="95" cy="75" fill="#fd75ff" transform="matrix(0.6106607111291678,0,0,0.6106607111291678,36.987232442729066,29.20044666531242)"></circle><circle r="5" cx="95" cy="85" fill="#fd75ff" transform="matrix(0.614008341467954,0,0,0.614008341467954,36.669207560544365,32.80929097522391)"></circle><circle r="5" cx="95" cy="95" fill="#fd75ff" transform="matrix(0.5923930702631567,0,0,0.5923930702631567,38.72265832500012,38.72265832500012)"></circle><circle r="5" cx="95" cy="105" fill="#fd75ff" transform="matrix(0.5541536319008568,0,0,0.5541536319008568,42.35540496941861,46.81386865041004)"></circle><circle r="5" cx="95" cy="115" fill="#fd75ff" transform="matrix(0.5120161377805424,0,0,0.5120161377805424,46.35846691084847,56.118144155237616)"></circle><circle r="5" cx="95" cy="125" fill="#fd75ff" transform="matrix(0.4796670875976633,0,0,0.4796670875976633,49.43162667822199,65.04161405029208)"></circle><circle r="5" cx="95" cy="135" fill="#fd75ff" transform="matrix(0.4679069190578796,0,0,0.4679069190578796,50.548842689501434,71.83256592718625)"></circle><circle r="5" cx="95" cy="145" fill="#fd75ff" transform="matrix(0.481380287529767,0,0,0.481380287529767,49.26887268467213,75.19985830818378)"></circle><circle r="5" cx="95" cy="155" fill="#fd75ff" transform="matrix(0.5169752684567723,0,0,0.5169752684567723,45.88734949660663,74.86883338920029)"></circle><circle r="5" cx="95" cy="165" fill="#fd75ff" transform="matrix(0.5651527914631325,0,0,0.5651527914631325,41.31048481100242,71.74978940858314)"></circle><circle r="5" cx="95" cy="175" fill="#fd75ff" transform="matrix(0.6153457096731241,0,0,0.6153457096731241,36.54215758105321,67.31450080720329)"></circle><circle r="5" cx="95" cy="185" fill="#fd75ff" transform="matrix(0.6595303161425885,0,0,0.6595303161425885,32.34461996645409,62.98689151362113)"></circle><circle r="5" cx="95" cy="195" fill="#fd75ff" transform="matrix(0.6886730161867226,0,0,0.6886730161867226,29.576063462261345,60.70876184358909)"></circle><circle r="5" cx="105" cy="5" fill="#fd75ff" transform="matrix(0.1807524066333438,0,0,0.1807524066333438,86.0209973034989,4.096237966833281)"></circle><circle r="5" cx="105" cy="15" fill="#fd75ff" transform="matrix(0.2044035975194965,0,0,0.2044035975194965,83.53762226045286,11.933946037207553)"></circle><circle r="5" cx="105" cy="25" fill="#fd75ff" transform="matrix(0.2512751885491959,0,0,0.2512751885491959,78.61610520233444,18.718120286270103)"></circle><circle r="5" cx="105" cy="35" fill="#fd75ff" transform="matrix(0.3153274473516604,0,0,0.3153274473516604,71.89061802807566,23.963539342691888)"></circle><circle r="5" cx="105" cy="45" fill="#fd75ff" transform="matrix(0.38729386452775516,0,0,0.38729386452775516,64.33414422458571,27.571776096251018)"></circle><circle r="5" cx="105" cy="55" fill="#fd75ff" transform="matrix(0.4568192613385918,0,0,0.4568192613385918,57.03397755944786,29.87494062637745)"></circle><circle r="5" cx="105" cy="65" fill="#fd75ff" transform="matrix(0.5145605543293714,0,0,0.5145605543293714,50.971141795416,31.553563968590858)"></circle><circle r="5" cx="105" cy="75" fill="#fd75ff" transform="matrix(0.5542693114731948,0,0,0.5542693114731948,46.80172229531455,33.42980163951039)"></circle><circle r="5" cx="105" cy="85" fill="#fd75ff" transform="matrix(0.5725166897159912,0,0,0.5725166897159912,44.88574757982092,36.33608137414075)"></circle><circle r="5" cx="105" cy="95" fill="#fd75ff" transform="matrix(0.5699586283197859,0,0,0.5699586283197859,45.15434402642248,40.85393030962034)"></circle><circle r="5" cx="105" cy="105" fill="#fd75ff" transform="matrix(0.5524283498754002,0,0,0.5524283498754002,46.99502326308298,46.99502326308298)"></circle><circle r="5" cx="105" cy="115" fill="#fd75ff" transform="matrix(0.5296764067142548,0,0,0.5296764067142548,49.38397729500325,54.0872132278607)"></circle><circle r="5" cx="105" cy="125" fill="#fd75ff" transform="matrix(0.5125968854313093,0,0,0.5125968854313093,51.17732702971252,60.92538932108633)"></circle><circle r="5" cx="105" cy="135" fill="#fd75ff" transform="matrix(0.509895321330714,0,0,0.509895321330714,51.46099126027503,66.1641316203536)"></circle><circle r="5" cx="105" cy="145" fill="#fd75ff" transform="matrix(0.5251726991865749,0,0,0.5251726991865749,49.856866585409634,68.84995861794663)"></circle><circle r="5" cx="105" cy="155" fill="#fd75ff" transform="matrix(0.5554918560919313,0,0,0.5554918560919313,46.67335511034722,68.89876230575065)"></circle><circle r="5" cx="105" cy="165" fill="#fd75ff" transform="matrix(0.5926576563496463,0,0,0.5926576563496463,42.77094608328714,67.21148670230836)"></circle><circle r="5" cx="105" cy="175" fill="#fd75ff" transform="matrix(0.6281777232470931,0,0,0.6281777232470931,39.04133905905523,65.06889843175871)"></circle><circle r="5" cx="105" cy="185" fill="#fd75ff" transform="matrix(0.6549779704801375,0,0,0.6549779704801375,36.22731309958556,63.82907546117457)"></circle><circle r="5" cx="105" cy="195" fill="#fd75ff" transform="matrix(0.6648832836331604,0,0,0.6648832836331604,35.18725521851816,65.34775969153372)"></circle><circle r="5" cx="115" cy="5" fill="#fd75ff" transform="matrix(0.1562204366856217,0,0,0.1562204366856217,97.0346497811535,4.218897816571891)"></circle><circle r="5" cx="115" cy="15" fill="#fd75ff" transform="matrix(0.16909851067269985,0,0,0.16909851067269985,95.55367127263952,12.463522339909503)"></circle><circle r="5" cx="115" cy="25" fill="#fd75ff" transform="matrix(0.20585735710666936,0,0,0.20585735710666936,91.32640393273303,19.853566072333265)"></circle><circle r="5" cx="115" cy="35" fill="#fd75ff" transform="matrix(0.2614550892388003,0,0,0.2614550892388003,84.93266473753796,25.84907187664199)"></circle><circle r="5" cx="115" cy="45" fill="#fd75ff" transform="matrix(0.3275875712300329,0,0,0.3275875712300329,77.32742930854621,30.25855929464852)"></circle><circle r="5" cx="115" cy="55" fill="#fd75ff" transform="matrix(0.3948009939656771,0,0,0.3948009939656771,69.59788569394713,33.28594533188776)"></circle><circle r="5" cx="115" cy="65" fill="#fd75ff" transform="matrix(0.45509444781536396,0,0,0.45509444781536396,62.66413850123315,35.41886089200135)"></circle><circle r="5" cx="115" cy="75" fill="#fd75ff" transform="matrix(0.502915617611772,0,0,0.502915617611772,57.16470397464622,37.2813286791171)"></circle><circle r="5" cx="115" cy="85" fill="#fd75ff" transform="matrix(0.5349143354119941,0,0,0.5349143354119941,53.48485142762068,39.532281489980505)"></circle><circle r="5" cx="115" cy="95" fill="#fd75ff" transform="matrix(0.5503696137821987,0,0,0.5503696137821987,51.707494415047144,42.714886690691124)"></circle><circle r="5" cx="115" cy="105" fill="#fd75ff" transform="matrix(0.5525258651211208,0,0,0.5525258651211208,51.45952551107111,46.98478416228232)"></circle><circle r="5" cx="115" cy="115" fill="#fd75ff" transform="matrix(0.548079649912403,0,0,0.548079649912403,51.97084026007366,51.97084026007366)"></circle><circle r="5" cx="115" cy="125" fill="#fd75ff" transform="matrix(0.5450459744389268,0,0,0.5450459744389268,52.31971293952342,56.86925319513415)"></circle><circle r="5" cx="115" cy="135" fill="#fd75ff" transform="matrix(0.5499462220755547,0,0,0.5499462220755547,51.756184461311214,60.75726001980013)"></circle><circle r="5" cx="115" cy="145" fill="#fd75ff" transform="matrix(0.5652784033049731,0,0,0.5652784033049731,49.99298361992808,63.03463152077889)"></circle><circle r="5" cx="115" cy="155" fill="#fd75ff" transform="matrix(0.5883182870487029,0,0,0.5883182870487029,47.34339698939917,63.81066550745105)"></circle><circle r="5" cx="115" cy="165" fill="#fd75ff" transform="matrix(0.6124609481928687,0,0,0.6124609481928687,44.56699095782011,63.94394354817666)"></circle><circle r="5" cx="115" cy="175" fill="#fd75ff" transform="matrix(0.6314510543285035,0,0,0.6314510543285035,42.383128752222106,64.49606549251189)"></circle><circle r="5" cx="115" cy="185" fill="#fd75ff" transform="matrix(0.6388084924285958,0,0,0.6388084924285958,41.53702337071148,66.82042890070977)"></circle><circle r="5" cx="115" cy="195" fill="#fd75ff" transform="matrix(0.6279461604769668,0,0,0.6279461604769668,42.78619154514881,72.55049870699146)"></circle><circle r="5" cx="125" cy="5" fill="#fd75ff" transform="matrix(0.1519366043721046,0,0,0.1519366043721046,106.00792445348692,4.240316978139477)"></circle><circle r="5" cx="125" cy="15" fill="#fd75ff" transform="matrix(0.1554614571308912,0,0,0.1554614571308912,105.5673178586386,12.668078143036631)"></circle><circle r="5" cx="125" cy="25" fill="#fd75ff" transform="matrix(0.1826172569195299,0,0,0.1826172569195299,102.17284288505877,20.434568577011753)"></circle><circle r="5" cx="125" cy="35" fill="#fd75ff" transform="matrix(0.229007599130025,0,0,0.229007599130025,96.37405010874687,26.984734030449125)"></circle><circle r="5" cx="125" cy="45" fill="#fd75ff" transform="matrix(0.28736768487690373,0,0,0.28736768487690373,89.07903939038704,32.068454180539334)"></circle><circle r="5" cx="125" cy="55" fill="#fd75ff" transform="matrix(0.3501637413463211,0,0,0.3501637413463211,81.22953233170986,35.740994225952335)"></circle><circle r="5" cx="125" cy="65" fill="#fd75ff" transform="matrix(0.41108415279043026,0,0,0.41108415279043026,73.61448090119622,38.27953006862204)"></circle><circle r="5" cx="125" cy="75" fill="#fd75ff" transform="matrix(0.46494659615398765,0,0,0.46494659615398765,66.88167548075154,40.12900528845093)"></circle><circle r="5" cx="125" cy="85" fill="#fd75ff" transform="matrix(0.5079875570000635,0,0,0.5079875570000635,61.501555374992066,41.821057654994604)"></circle><circle r="5" cx="125" cy="95" fill="#fd75ff" transform="matrix(0.5383457183072439,0,0,0.5383457183072439,57.70678521159452,43.85715676081183)"></circle><circle r="5" cx="125" cy="105" fill="#fd75ff" transform="matrix(0.5569923600874788,0,0,0.5569923600874788,55.37595498906515,46.51580219081473)"></circle><circle r="5" cx="125" cy="115" fill="#fd75ff" transform="matrix(0.5678295217228626,0,0,0.5678295217228626,54.02130978464217,49.69960500187079)"></circle><circle r="5" cx="125" cy="125" fill="#fd75ff" transform="matrix(0.5761791659604265,0,0,0.5761791659604265,52.977604254946684,52.977604254946684)"></circle><circle r="5" cx="125" cy="135" fill="#fd75ff" transform="matrix(0.5864909114900682,0,0,0.5864909114900682,51.688636063741484,55.8237269488408)"></circle><circle r="5" cx="125" cy="145" fill="#fd75ff" transform="matrix(0.6002234518563349,0,0,0.6002234518563349,49.97206851795815,57.96759948083145)"></circle><circle r="5" cx="125" cy="155" fill="#fd75ff" transform="matrix(0.6149385939817444,0,0,0.6149385939817444,48.13267575228194,59.68451793282961)"></circle><circle r="5" cx="125" cy="165" fill="#fd75ff" transform="matrix(0.6257956717215221,0,0,0.6257956717215221,46.77554103480975,61.74371416594886)"></circle><circle r="5" cx="125" cy="175" fill="#fd75ff" transform="matrix(0.6284498719883306,0,0,0.6284498719883306,46.443766001458684,65.02127240204214)"></circle><circle r="5" cx="125" cy="185" fill="#fd75ff" transform="matrix(0.6170007989801001,0,0,0.6170007989801001,47.87490012748749,70.85485218868149)"></circle><circle r="5" cx="125" cy="195" fill="#fd75ff" transform="matrix(0.5867584225016634,0,0,0.5867584225016634,51.655197187292075,80.58210761217563)"></circle><circle r="5" cx="135" cy="5" fill="#fd75ff" transform="matrix(0.16169912687400023,0,0,0.16169912687400023,113.17061787200997,4.191504365629999)"></circle><circle r="5" cx="135" cy="15" fill="#fd75ff" transform="matrix(0.15944368167548753,0,0,0.15944368167548753,113.47510297380919,12.608344774867687)"></circle><circle r="5" cx="135" cy="25" fill="#fd75ff" transform="matrix(0.17966402954529745,0,0,0.17966402954529745,110.74535601138484,20.508399261367565)"></circle><circle r="5" cx="135" cy="35" fill="#fd75ff" transform="matrix(0.218274548085925,0,0,0.218274548085925,105.53293600840013,27.360390816992627)"></circle><circle r="5" cx="135" cy="45" fill="#fd75ff" transform="matrix(0.2693508345416421,0,0,0.2693508345416421,98.63763733687831,32.87921244562611)"></circle><circle r="5" cx="135" cy="55" fill="#fd75ff" transform="matrix(0.32730049304484166,0,0,0.32730049304484166,90.81443343894637,36.998472882533704)"></circle><circle r="5" cx="135" cy="65" fill="#fd75ff" transform="matrix(0.38701494429565114,0,0,0.38701494429565114,82.7529825200871,39.84402862078268)"></circle><circle r="5" cx="135" cy="75" fill="#fd75ff" transform="matrix(0.44384060369306694,0,0,0.44384060369306694,75.08151850143597,41.71195472301998)"></circle><circle r="5" cx="135" cy="85" fill="#fd75ff" transform="matrix(0.493872441790277,0,0,0.493872441790277,68.3272203583126,43.02084244782645)"></circle><circle r="5" cx="135" cy="95" fill="#fd75ff" transform="matrix(0.5344399734911633,0,0,0.5344399734911633,62.850603578692954,44.22820251833948)"></circle><circle r="5" cx="135" cy="105" fill="#fd75ff" transform="matrix(0.5648257935815654,0,0,0.5648257935815654,58.74851786648867,45.69329167393563)"></circle><circle r="5" cx="135" cy="115" fill="#fd75ff" transform="matrix(0.5866335074863472,0,0,0.5866335074863472,55.804476489343116,47.53714663907007)"></circle><circle r="5" cx="135" cy="125" fill="#fd75ff" transform="matrix(0.6028686362864283,0,0,0.6028686362864283,53.61273410133218,49.64142046419647)"></circle><circle r="5" cx="135" cy="135" fill="#fd75ff" transform="matrix(0.6161635489995456,0,0,0.6161635489995456,51.81792088506134,51.81792088506134)"></circle><circle r="5" cx="135" cy="145" fill="#fd75ff" transform="matrix(0.627090843179817,0,0,0.627090843179817,50.342736170724706,54.07182773892653)"></circle><circle r="5" cx="135" cy="155" fill="#fd75ff" transform="matrix(0.6336026016660639,0,0,0.6336026016660639,49.46364877508138,56.7915967417601)"></circle><circle r="5" cx="135" cy="165" fill="#fd75ff" transform="matrix(0.6326968422649942,0,0,0.6326968422649942,49.585926294225786,60.60502102627595)"></circle><circle r="5" cx="135" cy="175" fill="#fd75ff" transform="matrix(0.6214009125379032,0,0,0.6214009125379032,51.110876807383065,66.25484030586694)"></circle><circle r="5" cx="135" cy="185" fill="#fd75ff" transform="matrix(0.5944650026546792,0,0,0.5944650026546792,54.74722464161832,75.02397450888435)"></circle><circle r="5" cx="135" cy="195" fill="#fd75ff" transform="matrix(0.5489389652262908,0,0,0.5489389652262908,60.89323969445074,87.9569017808733)"></circle><circle r="5" cx="145" cy="5" fill="#fd75ff" transform="matrix(0.17820876200462202,0,0,0.17820876200462202,119.15972950932981,4.10895618997689)"></circle><circle r="5" cx="145" cy="15" fill="#fd75ff" transform="matrix(0.17528696549111938,0,0,0.17528696549111938,119.58339000378768,12.370695517633209)"></circle><circle r="5" cx="145" cy="25" fill="#fd75ff" transform="matrix(0.192642708112001,0,0,0.192642708112001,117.06680732375986,20.183932297199974)"></circle><circle r="5" cx="145" cy="35" fill="#fd75ff" transform="matrix(0.22636414011926248,0,0,0.22636414011926248,112.17719968270694,27.077255095825812)"></circle><circle r="5" cx="145" cy="45" fill="#fd75ff" transform="matrix(0.27195523839450086,0,0,0.27195523839450086,105.56649043279737,32.76201427224746)"></circle><circle r="5" cx="145" cy="55" fill="#fd75ff" transform="matrix(0.3251773409578183,0,0,0.3251773409578183,97.84928556111635,37.115246247319995)"></circle><circle r="5" cx="145" cy="65" fill="#fd75ff" transform="matrix(0.381860529968515,0,0,0.381860529968515,89.63022315456533,40.179065552046524)"></circle><circle r="5" cx="145" cy="75" fill="#fd75ff" transform="matrix(0.4380242568193231,0,0,0.4380242568193231,81.48648276119815,42.148180738550764)"></circle><circle r="5" cx="145" cy="85" fill="#fd75ff" transform="matrix(0.4901254380036167,0,0,0.4901254380036167,73.93181148947558,43.339337769692584)"></circle><circle r="5" cx="145" cy="95" fill="#fd75ff" transform="matrix(0.5353249911603819,0,0,0.5353249911603819,67.37787628174462,44.14412583976372)"></circle><circle r="5" cx="145" cy="105" fill="#fd75ff" transform="matrix(0.5719278527165002,0,0,0.5719278527165002,62.07046135610747,44.94757546476748)"></circle><circle r="5" cx="145" cy="115" fill="#fd75ff" transform="matrix(0.5998697609512207,0,0,0.5998697609512207,58.018884662073006,46.014977490609624)"></circle><circle r="5" cx="145" cy="125" fill="#fd75ff" transform="matrix(0.620322437327843,0,0,0.620322437327843,55.053246587462766,47.45969533401963)"></circle><circle r="5" cx="145" cy="135" fill="#fd75ff" transform="matrix(0.6344340081205868,0,0,0.6344340081205868,53.00706882251491,49.35140890372078)"></circle><circle r="5" cx="145" cy="145" fill="#fd75ff" transform="matrix(0.6420944943018941,0,0,0.6420944943018941,51.89629832622535,51.89629832622535)"></circle><circle r="5" cx="145" cy="155" fill="#fd75ff" transform="matrix(0.6417702102480738,0,0,0.6417702102480738,51.9433195140293,55.525617411548566)"></circle><circle r="5" cx="145" cy="165" fill="#fd75ff" transform="matrix(0.6321891718026971,0,0,0.6321891718026971,53.33257008860892,60.68878665255498)"></circle><circle r="5" cx="145" cy="175" fill="#fd75ff" transform="matrix(0.6111933710355433,0,0,0.6111933710355433,56.37696119984622,68.04116006877993)"></circle><circle r="5" cx="145" cy="185" fill="#fd75ff" transform="matrix(0.5741477034345317,0,0,0.5741477034345317,61.7485830019929,78.78267486461164)"></circle><circle r="5" cx="145" cy="195" fill="#fd75ff" transform="matrix(0.5193506151806302,0,0,0.5193506151806302,69.69416079880862,93.7266300397771)"></circle><circle r="5" cx="155" cy="5" fill="#fd75ff" transform="matrix(0.19587822647650754,0,0,0.19587822647650754,124.63887489614133,4.0206088676174625)"></circle><circle r="5" cx="155" cy="15" fill="#fd75ff" transform="matrix(0.19797860527769628,0,0,0.19797860527769628,124.31331618195708,12.030320920834555)"></circle><circle r="5" cx="155" cy="25" fill="#fd75ff" transform="matrix(0.21705217930953594,0,0,0.21705217930953594,121.35691220702194,19.5736955172616)"></circle><circle r="5" cx="155" cy="35" fill="#fd75ff" transform="matrix(0.24934693317353665,0,0,0.24934693317353665,116.35122535810183,26.272857338926215)"></circle><circle r="5" cx="155" cy="45" fill="#fd75ff" transform="matrix(0.29133046727414047,0,0,0.29133046727414047,109.84377757250823,31.89012897266368)"></circle><circle r="5" cx="155" cy="55" fill="#fd75ff" transform="matrix(0.3396332669101455,0,0,0.3396332669101455,102.35684362892745,36.320170319941994)"></circle><circle r="5" cx="155" cy="65" fill="#fd75ff" transform="matrix(0.3909897625570547,0,0,0.3909897625570547,94.39658680365652,39.58566543379145)"></circle><circle r="5" cx="155" cy="75" fill="#fd75ff" transform="matrix(0.44239987846298273,0,0,0.44239987846298273,86.42801883823768,41.82000911527629)"></circle><circle r="5" cx="155" cy="85" fill="#fd75ff" transform="matrix(0.4912289340154984,0,0,0.4912289340154984,78.85951522759775,43.24554060868264)"></circle><circle r="5" cx="155" cy="95" fill="#fd75ff" transform="matrix(0.5351759992363851,0,0,0.5351759992363851,72.0477201183603,44.15828007254341)"></circle><circle r="5" cx="155" cy="105" fill="#fd75ff" transform="matrix(0.5723361166035631,0,0,0.5723361166035631,66.28790192644772,44.904707756625875)"></circle><circle r="5" cx="155" cy="115" fill="#fd75ff" transform="matrix(0.601655779000126,0,0,0.601655779000126,61.743354254980474,45.809585414985506)"></circle><circle r="5" cx="155" cy="125" fill="#fd75ff" transform="matrix(0.622982705998212,0,0,0.622982705998212,58.43768057027714,47.12716175022349)"></circle><circle r="5" cx="155" cy="135" fill="#fd75ff" transform="matrix(0.6363279989284828,0,0,0.6363279989284828,56.369160166085166,49.09572014465482)"></circle><circle r="5" cx="155" cy="145" fill="#fd75ff" transform="matrix(0.6411112688976606,0,0,0.6411112688976606,55.62775332086261,52.03886600983921)"></circle><circle r="5" cx="155" cy="155" fill="#fd75ff" transform="matrix(0.6364258340177318,0,0,0.6364258340177318,56.35399572725157,56.35399572725157)"></circle><circle r="5" cx="155" cy="165" fill="#fd75ff" transform="matrix(0.6222603076544858,0,0,0.6222603076544858,58.5496523135547,62.327049237009845)"></circle><circle r="5" cx="155" cy="175" fill="#fd75ff" transform="matrix(0.5969117964517601,0,0,0.5969117964517601,62.47867154997719,70.54043562094199)"></circle><circle r="5" cx="155" cy="185" fill="#fd75ff" transform="matrix(0.556186113650988,0,0,0.556186113650988,68.79115238409686,82.10556897456722)"></circle><circle r="5" cx="155" cy="195" fill="#fd75ff" transform="matrix(0.4989478636433566,0,0,0.4989478636433566,77.66308113527973,97.70516658954547)"></circle><circle r="5" cx="165" cy="5" fill="#fd75ff" transform="matrix(0.21180082531693026,0,0,0.21180082531693026,130.0528638227065,3.940995873415349)"></circle><circle r="5" cx="165" cy="15" fill="#fd75ff" transform="matrix(0.2240542190671625,0,0,0.2240542190671625,128.0310538539182,11.639186713992562)"></circle><circle r="5" cx="165" cy="25" fill="#fd75ff" transform="matrix(0.24903730845316047,0,0,0.24903730845316047,123.90884410522852,18.774067288670988)"></circle><circle r="5" cx="165" cy="35" fill="#fd75ff" transform="matrix(0.28296717539150384,0,0,0.28296717539150384,118.31041606040186,25.096148861297365)"></circle><circle r="5" cx="165" cy="45" fill="#fd75ff" transform="matrix(0.3226433144853108,0,0,0.3226433144853108,111.76385310992372,30.48105084816101)"></circle><circle r="5" cx="165" cy="55" fill="#fd75ff" transform="matrix(0.3652768744698217,0,0,0.3652768744698217,104.72931571247942,34.90977190415981)"></circle><circle r="5" cx="165" cy="65" fill="#fd75ff" transform="matrix(0.4085922026265946,0,0,0.4085922026265946,97.58228656661188,38.44150682927135)"></circle><circle r="5" cx="165" cy="75" fill="#fd75ff" transform="matrix(0.4509315557949176,0,0,0.4509315557949176,90.5962932938386,41.18013331538118)"></circle><circle r="5" cx="165" cy="85" fill="#fd75ff" transform="matrix(0.4911206767453772,0,0,0.4911206767453772,83.96508833701276,43.25474247664294)"></circle><circle r="5" cx="165" cy="95" fill="#fd75ff" transform="matrix(0.5280725750247611,0,0,0.5280725750247611,77.86802512091441,44.833105372647694)"></circle><circle r="5" cx="165" cy="105" fill="#fd75ff" transform="matrix(0.5603996718285444,0,0,0.5603996718285444,72.53405414829017,46.15803445800283)"></circle><circle r="5" cx="165" cy="115" fill="#fd75ff" transform="matrix(0.5866395075855911,0,0,0.5866395075855911,68.20448124837746,47.53645662765702)"></circle><circle r="5" cx="165" cy="125" fill="#fd75ff" transform="matrix(0.6059130860031777,0,0,0.6059130860031777,65.02434080947567,49.26086424960279)"></circle><circle r="5" cx="165" cy="135" fill="#fd75ff" transform="matrix(0.6174484144416085,0,0,0.6174484144416085,63.1210116171346,51.64446405038285)"></circle><circle r="5" cx="165" cy="145" fill="#fd75ff" transform="matrix(0.6203752478148103,0,0,0.6203752478148103,62.63808411055629,55.0455890668525)"></circle><circle r="5" cx="165" cy="155" fill="#fd75ff" transform="matrix(0.6143358763355302,0,0,0.6143358763355302,63.63458040463752,59.77793916799281)"></circle><circle r="5" cx="165" cy="165" fill="#fd75ff" transform="matrix(0.599846881081833,0,0,0.599846881081833,66.02526462149756,66.02526462149756)"></circle><circle r="5" cx="165" cy="175" fill="#fd75ff" transform="matrix(0.5755759110474303,0,0,0.5755759110474303,70.029974677174,74.2742155666997)"></circle><circle r="5" cx="165" cy="185" fill="#fd75ff" transform="matrix(0.5375097449932433,0,0,0.5375097449932433,76.31089207611485,85.56069717624999)"></circle><circle r="5" cx="165" cy="195" fill="#fd75ff" transform="matrix(0.4843540606268587,0,0,0.4843540606268587,85.08157999656831,100.55095817776255)"></circle><circle r="5" cx="175" cy="5" fill="#fd75ff" transform="matrix(0.22589382797127455,0,0,0.22589382797127455,135.46858010502694,3.870530860143627)"></circle><circle r="5" cx="175" cy="15" fill="#fd75ff" transform="matrix(0.2518078609561023,0,0,0.2518078609561023,130.9336243326821,11.222882085658465)"></circle><circle r="5" cx="175" cy="25" fill="#fd75ff" transform="matrix(0.2856670018709893,0,0,0.2856670018709893,125.00827467257687,17.858324953225267)"></circle><circle r="5" cx="175" cy="35" fill="#fd75ff" transform="matrix(0.32321131845237594,0,0,0.32321131845237594,118.43801927083422,23.68760385416684)"></circle><circle r="5" cx="175" cy="45" fill="#fd75ff" transform="matrix(0.3610570702920305,0,0,0.3610570702920305,111.81501269889466,28.752431836858626)"></circle><circle r="5" cx="175" cy="55" fill="#fd75ff" transform="matrix(0.39682845736494715,0,0,0.39682845736494715,105.55501996113425,33.1744348449279)"></circle><circle r="5" cx="175" cy="65" fill="#fd75ff" transform="matrix(0.4293535161895521,0,0,0.4293535161895521,99.86313466682839,37.092021447679116)"></circle><circle r="5" cx="175" cy="75" fill="#fd75ff" transform="matrix(0.45863621774796404,0,0,0.45863621774796404,94.7386618941063,40.6022836689027)"></circle><circle r="5" cx="175" cy="85" fill="#fd75ff" transform="matrix(0.4854218331243234,0,0,0.4854218331243234,90.05117920324341,43.73914418443251)"></circle><circle r="5" cx="175" cy="95" fill="#fd75ff" transform="matrix(0.5103882675892202,0,0,0.5103882675892202,85.68205317188647,46.513114579024084)"></circle><circle r="5" cx="175" cy="105" fill="#fd75ff" transform="matrix(0.5332848223719919,0,0,0.5332848223719919,81.67515608490142,49.00509365094085)"></circle><circle r="5" cx="175" cy="115" fill="#fd75ff" transform="matrix(0.5527016571072282,0,0,0.5527016571072282,78.27721000623507,51.43930943266876)"></circle><circle r="5" cx="175" cy="125" fill="#fd75ff" transform="matrix(0.5672173538577328,0,0,0.5672173538577328,75.73696307489676,54.09783076778341)"></circle><circle r="5" cx="175" cy="135" fill="#fd75ff" transform="matrix(0.5758937632576292,0,0,0.5758937632576292,74.2185914299149,57.25434196022006)"></circle><circle r="5" cx="175" cy="145" fill="#fd75ff" transform="matrix(0.5778917813306217,0,0,0.5778917813306217,73.8689382671412,61.205691707059856)"></circle><circle r="5" cx="175" cy="155" fill="#fd75ff" transform="matrix(0.572990990932687,0,0,0.572990990932687,74.72657658677977,66.18639640543351)"></circle><circle r="5" cx="175" cy="165" fill="#fd75ff" transform="matrix(0.5616820673796961,0,0,0.5616820673796961,76.7056382085532,72.32245888235015)"></circle><circle r="5" cx="175" cy="175" fill="#fd75ff" transform="matrix(0.5429577330737915,0,0,0.5429577330737915,79.9823967120865,79.9823967120865)"></circle><circle r="5" cx="175" cy="185" fill="#fd75ff" transform="matrix(0.5127729692289947,0,0,0.5127729692289947,85.26473038492593,90.13700069263598)"></circle><circle r="5" cx="175" cy="195" fill="#fd75ff" transform="matrix(0.46906431318016073,0,0,0.46906431318016073,92.91374519347187,103.53245892986865)"></circle><circle r="5" cx="185" cy="5" fill="#fd75ff" transform="matrix(0.24075445930998662,0,0,0.24075445930998662,140.4604250276525,3.796227703450067)"></circle><circle r="5" cx="185" cy="15" fill="#fd75ff" transform="matrix(0.2814914676879634,0,0,0.2814914676879634,132.92407847772677,10.77762798468055)"></circle><circle r="5" cx="185" cy="25" fill="#fd75ff" transform="matrix(0.32534324789473956,0,0,0.32534324789473956,124.81149913947318,16.86641880263151)"></circle><circle r="5" cx="185" cy="35" fill="#fd75ff" transform="matrix(0.3670497640392363,0,0,0.3670497640392363,117.09579365274129,22.153258258626728)"></circle><circle r="5" cx="185" cy="45" fill="#fd75ff" transform="matrix(0.402709496895539,0,0,0.402709496895539,110.49874307432529,26.878072639700747)"></circle><circle r="5" cx="185" cy="55" fill="#fd75ff" transform="matrix(0.43025371086704167,0,0,0.43025371086704167,105.40306348959729,31.33604590231271)"></circle><circle r="5" cx="185" cy="65" fill="#fd75ff" transform="matrix(0.44968641596845976,0,0,0.44968641596845976,101.80801304583494,35.770382962050114)"></circle><circle r="5" cx="185" cy="75" fill="#fd75ff" transform="matrix(0.4628735443849301,0,0,0.4628735443849301,99.36839428878793,40.284484171130245)"></circle><circle r="5" cx="185" cy="85" fill="#fd75ff" transform="matrix(0.4727659460412146,0,0,0.4727659460412146,97.5382999823753,44.81489458649676)"></circle><circle r="5" cx="185" cy="95" fill="#fd75ff" transform="matrix(0.48215238939454563,0,0,0.48215238939454563,95.80180796200906,49.19552300751816)"></circle><circle r="5" cx="185" cy="105" fill="#fd75ff" transform="matrix(0.49232345024506197,0,0,0.49232345024506197,93.92016170466354,53.30603772426849)"></circle><circle r="5" cx="185" cy="115" fill="#fd75ff" transform="matrix(0.5023849827380771,0,0,0.5023849827380771,92.05877819345574,57.225726985121135)"></circle><circle r="5" cx="185" cy="125" fill="#fd75ff" transform="matrix(0.510334299835025,0,0,0.510334299835025,90.58815453052038,61.20821252062188)"></circle><circle r="5" cx="185" cy="135" fill="#fd75ff" transform="matrix(0.5151101846415859,0,0,0.5151101846415859,89.70461584130662,65.46012507338591)"></circle><circle r="5" cx="185" cy="145" fill="#fd75ff" transform="matrix(0.516208914018427,0,0,0.516208914018427,89.50135090659101,70.1497074673281)"></circle><circle r="5" cx="185" cy="155" fill="#fd75ff" transform="matrix(0.51351129353207,0,0,0.51351129353207,90.00041069656704,75.40574950252915)"></circle><circle r="5" cx="185" cy="165" fill="#fd75ff" transform="matrix(0.5072944275496871,0,0,0.5072944275496871,91.15053090330788,81.29641945430163)"></circle><circle r="5" cx="185" cy="175" fill="#fd75ff" transform="matrix(0.49680434385721745,0,0,0.49680434385721745,93.09119638641478,88.05923982498695)"></circle><circle r="5" cx="185" cy="185" fill="#fd75ff" transform="matrix(0.47796821153230623,0,0,0.47796821153230623,96.57588086652335,96.57588086652335)"></circle><circle r="5" cx="185" cy="195" fill="#fd75ff" transform="matrix(0.4476276642629377,0,0,0.4476276642629377,102.18888211135652,107.71260546872715)"></circle><circle r="5" cx="195" cy="5" fill="#fd75ff" transform="matrix(0.2613252460002983,0,0,0.2613252460002983,144.04157702994183,3.6933737699985087)"></circle><circle r="5" cx="195" cy="15" fill="#fd75ff" transform="matrix(0.315528066948197,0,0,0.315528066948197,133.4720269451016,10.267078995777045)"></circle><circle r="5" cx="195" cy="25" fill="#fd75ff" transform="matrix(0.36835092037397105,0,0,0.36835092037397105,123.17157052707564,15.791226990650724)"></circle><circle r="5" cx="195" cy="35" fill="#fd75ff" transform="matrix(0.4132480090114909,0,0,0.4132480090114909,114.41663824275928,20.53631968459782)"></circle><circle r="5" cx="195" cy="45" fill="#fd75ff" transform="matrix(0.44564102968946284,0,0,0.44564102968946284,108.09999921055474,24.946153663974172)"></circle><circle r="5" cx="195" cy="55" fill="#fd75ff" transform="matrix(0.4636919116186451,0,0,0.4636919116186451,104.58007723436421,29.49694486097452)"></circle><circle r="5" cx="195" cy="65" fill="#fd75ff" transform="matrix(0.46856720952236774,0,0,0.46856720952236774,103.62939414313828,34.543131381046095)"></circle><circle r="5" cx="195" cy="75" fill="#fd75ff" transform="matrix(0.4640229994582463,0,0,0.4640229994582463,104.51551510564197,40.19827504063153)"></circle><circle r="5" cx="195" cy="85" fill="#fd75ff" transform="matrix(0.4552705530495913,0,0,0.4552705530495913,106.2222421553297,46.30200299078474)"></circle><circle r="5" cx="195" cy="95" fill="#fd75ff" transform="matrix(0.4472905856922116,0,0,0.4472905856922116,107.77833579001874,52.507394359239896)"></circle><circle r="5" cx="195" cy="105" fill="#fd75ff" transform="matrix(0.44304450894939135,0,0,0.44304450894939135,108.60632075486869,58.480326560313905)"></circle><circle r="5" cx="195" cy="115" fill="#fd75ff" transform="matrix(0.44238488153410704,0,0,0.44238488153410704,108.73494810084912,64.12573862357769)"></circle><circle r="5" cx="195" cy="125" fill="#fd75ff" transform="matrix(0.4429141302560614,0,0,0.4429141302560614,108.63174460006802,69.63573371799232)"></circle><circle r="5" cx="195" cy="135" fill="#fd75ff" transform="matrix(0.4432665536441852,0,0,0.4432665536441852,108.56302203938388,75.159015258035)"></circle><circle r="5" cx="195" cy="145" fill="#fd75ff" transform="matrix(0.44334761489856483,0,0,0.44334761489856483,108.54721509477986,80.7145958397081)"></circle><circle r="5" cx="195" cy="155" fill="#fd75ff" transform="matrix(0.4431485810002655,0,0,0.4431485810002655,108.58602670494822,86.31196994495885)"></circle><circle r="5" cx="195" cy="165" fill="#fd75ff" transform="matrix(0.44269054778157774,0,0,0.44269054778157774,108.67534318259234,91.95605961603967)"></circle><circle r="5" cx="195" cy="175" fill="#fd75ff" transform="matrix(0.44140080643149193,0,0,0.44140080643149193,108.92684274585908,97.75485887448892)"></circle><circle r="5" cx="195" cy="185" fill="#fd75ff" transform="matrix(0.43558658357382624,0,0,0.43558658357382624,110.06061620310389,104.41648203884215)"></circle><circle r="5" cx="195" cy="195" fill="#fd75ff" transform="matrix(0.42136536787292544,0,0,0.42136536787292544,112.83375326477953,112.83375326477953)"></circle></svg>