<svg width="776" height="250" viewBox="0 0 776 250" fill="none" xmlns="http://www.w3.org/2000/svg">
<g clip-path="url(#clip0_16_3)">
<line x1="-164.201" y1="277.691" x2="163.035" y2="-7.61619" stroke="#F270C3" stroke-opacity="0.2" stroke-width="2.5"/>
<line x1="-155.52" y1="277.691" x2="171.716" y2="-7.61619" stroke="#F270C3" stroke-opacity="0.2" stroke-width="2.5"/>
<line x1="-146.84" y1="277.691" x2="180.396" y2="-7.61619" stroke="#F270C3" stroke-opacity="0.2" stroke-width="2.5"/>
<line x1="-138.16" y1="277.691" x2="189.076" y2="-7.61619" stroke="#F270C3" stroke-opacity="0.2" stroke-width="2.5"/>
<line x1="-129.48" y1="277.691" x2="197.756" y2="-7.61619" stroke="#F270C3" stroke-opacity="0.2" stroke-width="2.5"/>
<line x1="-120.799" y1="277.691" x2="206.437" y2="-7.61619" stroke="#F270C3" stroke-opacity="0.2" stroke-width="2.5"/>
<line x1="-112.119" y1="277.691" x2="215.117" y2="-7.61619" stroke="#F270C3" stroke-opacity="0.2" stroke-width="2.5"/>
<line x1="-103.438" y1="277.691" x2="223.798" y2="-7.61619" stroke="#F270C3" stroke-opacity="0.2" stroke-width="2.5"/>
<line x1="-94.7582" y1="277.691" x2="232.478" y2="-7.61619" stroke="#F270C3" stroke-opacity="0.2" stroke-width="2.5"/>
<line x1="-86.0781" y1="277.691" x2="241.158" y2="-7.61619" stroke="#F270C3" stroke-opacity="0.2" stroke-width="2.5"/>
<line x1="-77.3976" y1="277.691" x2="249.838" y2="-7.61619" stroke="#F270C3" stroke-opacity="0.2" stroke-width="2.5"/>
<line x1="-68.7177" y1="277.691" x2="258.518" y2="-7.61619" stroke="#F270C3" stroke-opacity="0.2" stroke-width="2.5"/>
<line x1="-59.8427" y1="277.064" x2="266.759" y2="-7.68995" stroke="#F270C3" stroke-opacity="0.2" stroke-width="2.5"/>
<line x1="-51.2367" y1="277.064" x2="275.365" y2="-7.68995" stroke="#F270C3" stroke-opacity="0.2" stroke-width="2.5"/>
<line x1="-42.6308" y1="277.064" x2="283.97" y2="-7.68995" stroke="#F270C3" stroke-opacity="0.2" stroke-width="2.5"/>
<line x1="-34.0246" y1="277.064" x2="292.577" y2="-7.68995" stroke="#F270C3" stroke-opacity="0.2" stroke-width="2.5"/>
<line x1="-25.4198" y1="277.064" x2="301.181" y2="-7.68995" stroke="#F270C3" stroke-opacity="0.2" stroke-width="2.5"/>
<line x1="-16.8139" y1="277.064" x2="309.787" y2="-7.68995" stroke="#F270C3" stroke-opacity="0.2" stroke-width="2.5"/>
<line x1="-8.20769" y1="277.064" x2="318.394" y2="-7.68995" stroke="#F270C3" stroke-opacity="0.2" stroke-width="2.5"/>
<line x1="0.398268" y1="277.064" x2="327" y2="-7.68995" stroke="#F270C3" stroke-opacity="0.2" stroke-width="2.5"/>
<line x1="9.00423" y1="277.064" x2="335.605" y2="-7.68995" stroke="#F270C3" stroke-opacity="0.2" stroke-width="2.5"/>
<line x1="17.6104" y1="277.064" x2="344.212" y2="-7.68995" stroke="#F270C3" stroke-opacity="0.2" stroke-width="2.5"/>
<line x1="26.2166" y1="277.064" x2="352.818" y2="-7.68995" stroke="#F270C3" stroke-opacity="0.2" stroke-width="2.5"/>
<line x1="34.8223" y1="277.064" x2="361.424" y2="-7.68995" stroke="#F270C3" stroke-opacity="0.2" stroke-width="2.5"/>
<line x1="45.7169" y1="274.926" x2="370.156" y2="-7.94218" stroke="#F270C3" stroke-opacity="0.2" stroke-width="2.5"/>
<line x1="54.3228" y1="274.926" x2="378.762" y2="-7.94218" stroke="#F270C3" stroke-opacity="0.2" stroke-width="2.5"/>
<line x1="62.9288" y1="274.926" x2="387.368" y2="-7.94218" stroke="#F270C3" stroke-opacity="0.2" stroke-width="2.5"/>
<line x1="71.5352" y1="274.926" x2="395.974" y2="-7.94218" stroke="#F270C3" stroke-opacity="0.2" stroke-width="2.5"/>
<line x1="80.1412" y1="274.926" x2="404.58" y2="-7.94218" stroke="#F270C3" stroke-opacity="0.2" stroke-width="2.5"/>
<line x1="88.7471" y1="274.926" x2="413.186" y2="-7.94218" stroke="#F270C3" stroke-opacity="0.2" stroke-width="2.5"/>
<line x1="97.3533" y1="274.926" x2="421.792" y2="-7.94218" stroke="#F270C3" stroke-opacity="0.2" stroke-width="2.5"/>
<line x1="105.96" y1="274.926" x2="430.399" y2="-7.94218" stroke="#F270C3" stroke-opacity="0.2" stroke-width="2.5"/>
<line x1="114.566" y1="274.926" x2="439.005" y2="-7.94218" stroke="#F270C3" stroke-opacity="0.2" stroke-width="2.5"/>
<line x1="123.172" y1="274.926" x2="447.611" y2="-7.94218" stroke="#F270C3" stroke-opacity="0.2" stroke-width="2.5"/>
<line x1="131.778" y1="274.926" x2="456.217" y2="-7.94218" stroke="#F270C3" stroke-opacity="0.2" stroke-width="2.5"/>
<line x1="140.384" y1="274.926" x2="464.823" y2="-7.94218" stroke="#F270C3" stroke-opacity="0.2" stroke-width="2.5"/>
<line x1="146.702" y1="277.064" x2="473.303" y2="-7.68995" stroke="#F270C3" stroke-opacity="0.2" stroke-width="2.5"/>
<line x1="155.308" y1="277.064" x2="481.909" y2="-7.68995" stroke="#F270C3" stroke-opacity="0.2" stroke-width="2.5"/>
<line x1="163.914" y1="277.064" x2="490.515" y2="-7.68995" stroke="#F270C3" stroke-opacity="0.2" stroke-width="2.5"/>
<line x1="172.52" y1="277.064" x2="499.121" y2="-7.68995" stroke="#F270C3" stroke-opacity="0.2" stroke-width="2.5"/>
<line x1="181.126" y1="277.064" x2="507.727" y2="-7.68995" stroke="#F270C3" stroke-opacity="0.2" stroke-width="2.5"/>
<line x1="189.732" y1="277.064" x2="516.333" y2="-7.68995" stroke="#F270C3" stroke-opacity="0.2" stroke-width="2.5"/>
<line x1="198.338" y1="277.064" x2="524.939" y2="-7.68995" stroke="#F270C3" stroke-opacity="0.2" stroke-width="2.5"/>
<line x1="206.944" y1="277.064" x2="533.545" y2="-7.68995" stroke="#F270C3" stroke-opacity="0.2" stroke-width="2.5"/>
<line x1="215.55" y1="277.064" x2="542.151" y2="-7.68995" stroke="#F270C3" stroke-opacity="0.2" stroke-width="2.5"/>
<line x1="224.156" y1="277.064" x2="550.757" y2="-7.68995" stroke="#F270C3" stroke-opacity="0.2" stroke-width="2.5"/>
<line x1="232.762" y1="277.064" x2="559.363" y2="-7.68995" stroke="#F270C3" stroke-opacity="0.2" stroke-width="2.5"/>
<line x1="241.368" y1="277.064" x2="567.969" y2="-7.68995" stroke="#F270C3" stroke-opacity="0.2" stroke-width="2.5"/>
<line x1="-164.201" y1="277.691" x2="163.035" y2="-7.61619" stroke="#F270C3" stroke-opacity="0.2" stroke-width="2.5"/>
<line x1="-155.52" y1="277.691" x2="171.716" y2="-7.61619" stroke="#F270C3" stroke-opacity="0.2" stroke-width="2.5"/>
<line x1="-146.84" y1="277.691" x2="180.396" y2="-7.61619" stroke="#F270C3" stroke-opacity="0.2" stroke-width="2.5"/>
<line x1="-138.16" y1="277.691" x2="189.076" y2="-7.61619" stroke="#F270C3" stroke-opacity="0.2" stroke-width="2.5"/>
<line x1="-129.48" y1="277.691" x2="197.756" y2="-7.61619" stroke="#F270C3" stroke-opacity="0.2" stroke-width="2.5"/>
<line x1="-120.799" y1="277.691" x2="206.437" y2="-7.61619" stroke="#F270C3" stroke-opacity="0.2" stroke-width="2.5"/>
<line x1="-112.119" y1="277.691" x2="215.117" y2="-7.61619" stroke="#F270C3" stroke-opacity="0.2" stroke-width="2.5"/>
<line x1="-103.438" y1="277.691" x2="223.798" y2="-7.61619" stroke="#F270C3" stroke-opacity="0.2" stroke-width="2.5"/>
<line x1="-94.7582" y1="277.691" x2="232.478" y2="-7.61619" stroke="#F270C3" stroke-opacity="0.2" stroke-width="2.5"/>
<line x1="-86.0781" y1="277.691" x2="241.158" y2="-7.61619" stroke="#F270C3" stroke-opacity="0.2" stroke-width="2.5"/>
<line x1="-77.3976" y1="277.691" x2="249.838" y2="-7.61619" stroke="#F270C3" stroke-opacity="0.2" stroke-width="2.5"/>
<line x1="-68.7177" y1="277.691" x2="258.518" y2="-7.61619" stroke="#F270C3" stroke-opacity="0.2" stroke-width="2.5"/>
<line x1="-59.8427" y1="277.064" x2="266.759" y2="-7.68995" stroke="#F270C3" stroke-opacity="0.2" stroke-width="2.5"/>
<line x1="-51.2367" y1="277.064" x2="275.365" y2="-7.68995" stroke="#F270C3" stroke-opacity="0.2" stroke-width="2.5"/>
<line x1="-42.6308" y1="277.064" x2="283.97" y2="-7.68995" stroke="#F270C3" stroke-opacity="0.2" stroke-width="2.5"/>
<line x1="-34.0246" y1="277.064" x2="292.577" y2="-7.68995" stroke="#F270C3" stroke-opacity="0.2" stroke-width="2.5"/>
<line x1="-25.4198" y1="277.064" x2="301.181" y2="-7.68995" stroke="#F270C3" stroke-opacity="0.2" stroke-width="2.5"/>
<line x1="-16.8139" y1="277.064" x2="309.787" y2="-7.68995" stroke="#F270C3" stroke-opacity="0.2" stroke-width="2.5"/>
<line x1="-8.20769" y1="277.064" x2="318.394" y2="-7.68995" stroke="#F270C3" stroke-opacity="0.2" stroke-width="2.5"/>
<line x1="0.398268" y1="277.064" x2="327" y2="-7.68995" stroke="#F270C3" stroke-opacity="0.2" stroke-width="2.5"/>
<line x1="9.00423" y1="277.064" x2="335.605" y2="-7.68995" stroke="#F270C3" stroke-opacity="0.2" stroke-width="2.5"/>
<line x1="17.6104" y1="277.064" x2="344.212" y2="-7.68995" stroke="#F270C3" stroke-opacity="0.2" stroke-width="2.5"/>
<line x1="26.2166" y1="277.064" x2="352.818" y2="-7.68995" stroke="#F270C3" stroke-opacity="0.2" stroke-width="2.5"/>
<line x1="34.8223" y1="277.064" x2="361.424" y2="-7.68995" stroke="#F270C3" stroke-opacity="0.2" stroke-width="2.5"/>
<line x1="45.7169" y1="274.926" x2="370.156" y2="-7.94218" stroke="#F270C3" stroke-opacity="0.2" stroke-width="2.5"/>
<line x1="54.3228" y1="274.926" x2="378.762" y2="-7.94218" stroke="#F270C3" stroke-opacity="0.2" stroke-width="2.5"/>
<line x1="62.9288" y1="274.926" x2="387.368" y2="-7.94218" stroke="#F270C3" stroke-opacity="0.2" stroke-width="2.5"/>
<line x1="71.5352" y1="274.926" x2="395.974" y2="-7.94218" stroke="#F270C3" stroke-opacity="0.2" stroke-width="2.5"/>
<line x1="80.1412" y1="274.926" x2="404.58" y2="-7.94218" stroke="#F270C3" stroke-opacity="0.2" stroke-width="2.5"/>
<line x1="88.7471" y1="274.926" x2="413.186" y2="-7.94218" stroke="#F270C3" stroke-opacity="0.2" stroke-width="2.5"/>
<line x1="97.3533" y1="274.926" x2="421.792" y2="-7.94218" stroke="#F270C3" stroke-opacity="0.2" stroke-width="2.5"/>
<line x1="105.96" y1="274.926" x2="430.399" y2="-7.94218" stroke="#F270C3" stroke-opacity="0.2" stroke-width="2.5"/>
<line x1="114.566" y1="274.926" x2="439.005" y2="-7.94218" stroke="#F270C3" stroke-opacity="0.2" stroke-width="2.5"/>
<line x1="-322.672" y1="279.612" x2="6.31684" y2="-7.22331" stroke="#F270C3" stroke-opacity="0.2" stroke-width="2"/>
<line x1="-313.974" y1="279.612" x2="15.0148" y2="-7.22331" stroke="#F270C3" stroke-opacity="0.2" stroke-width="2"/>
<line x1="-305.44" y1="279.423" x2="23.5483" y2="-7.41175" stroke="#F270C3" stroke-opacity="0.2" stroke-width="2.5"/>
<line x1="-296.743" y1="279.423" x2="32.2461" y2="-7.41175" stroke="#F270C3" stroke-opacity="0.2" stroke-width="2.5"/>
<line x1="-288.045" y1="279.423" x2="40.9438" y2="-7.41175" stroke="#F270C3" stroke-opacity="0.2" stroke-width="2.5"/>
<line x1="-279.347" y1="279.423" x2="49.6416" y2="-7.41175" stroke="#F270C3" stroke-opacity="0.2" stroke-width="2.5"/>
<line x1="-270.649" y1="279.423" x2="58.3393" y2="-7.41175" stroke="#F270C3" stroke-opacity="0.2" stroke-width="2.5"/>
<line x1="-261.951" y1="279.423" x2="67.0373" y2="-7.41175" stroke="#F270C3" stroke-opacity="0.2" stroke-width="2.5"/>
<line x1="-253.254" y1="279.423" x2="75.7351" y2="-7.41175" stroke="#F270C3" stroke-opacity="0.2" stroke-width="2.5"/>
<line x1="-242.265" y1="277.263" x2="84.5385" y2="-7.66667" stroke="#F270C3" stroke-opacity="0.2" stroke-width="2.5"/>
<line x1="-233.567" y1="277.263" x2="93.2363" y2="-7.66667" stroke="#F270C3" stroke-opacity="0.2" stroke-width="2.5"/>
<line x1="-224.87" y1="277.263" x2="101.933" y2="-7.66667" stroke="#F270C3" stroke-opacity="0.2" stroke-width="2.5"/>
<line x1="-216.172" y1="277.263" x2="110.631" y2="-7.66667" stroke="#F270C3" stroke-opacity="0.2" stroke-width="2.5"/>
<line x1="-207.475" y1="277.263" x2="119.329" y2="-7.66667" stroke="#F270C3" stroke-opacity="0.2" stroke-width="2.5"/>
<line x1="-198.777" y1="277.263" x2="128.027" y2="-7.66667" stroke="#F270C3" stroke-opacity="0.2" stroke-width="2.5"/>
<line x1="-190.079" y1="277.263" x2="136.724" y2="-7.66667" stroke="#F270C3" stroke-opacity="0.2" stroke-width="2.5"/>
<line x1="-181.382" y1="277.263" x2="145.422" y2="-7.66667" stroke="#F270C3" stroke-opacity="0.2" stroke-width="2.5"/>
<line x1="-172.684" y1="277.263" x2="154.12" y2="-7.66667" stroke="#F270C3" stroke-opacity="0.2" stroke-width="2.5"/>
<line x1="-322.672" y1="280.612" x2="6.31684" y2="-6.22331" stroke="#F270C3" stroke-opacity="0.2" stroke-width="2"/>
<line x1="-313.974" y1="279.612" x2="15.0148" y2="-7.22331" stroke="#F270C3" stroke-opacity="0.2" stroke-width="2"/>
<line x1="-305.44" y1="279.423" x2="23.5483" y2="-7.41175" stroke="#F270C3" stroke-opacity="0.2" stroke-width="2.5"/>
<line x1="-296.743" y1="279.423" x2="32.2461" y2="-7.41175" stroke="#F270C3" stroke-opacity="0.2" stroke-width="2.5"/>
<line x1="-288.045" y1="279.423" x2="40.9438" y2="-7.41175" stroke="#F270C3" stroke-opacity="0.2" stroke-width="2.5"/>
<line x1="-279.347" y1="279.423" x2="49.6416" y2="-7.41175" stroke="#F270C3" stroke-opacity="0.2" stroke-width="2.5"/>
<line x1="-270.649" y1="279.423" x2="58.3393" y2="-7.41175" stroke="#F270C3" stroke-opacity="0.2" stroke-width="2.5"/>
<line x1="-261.951" y1="279.423" x2="67.0373" y2="-7.41175" stroke="#F270C3" stroke-opacity="0.2" stroke-width="2.5"/>
<line x1="-253.254" y1="279.423" x2="75.7351" y2="-7.41175" stroke="#F270C3" stroke-opacity="0.2" stroke-width="2.5"/>
<line x1="-242.265" y1="277.263" x2="84.5385" y2="-7.66667" stroke="#F270C3" stroke-opacity="0.2" stroke-width="2.5"/>
<line x1="-233.567" y1="277.263" x2="93.2363" y2="-7.66667" stroke="#F270C3" stroke-opacity="0.2" stroke-width="2.5"/>
<line x1="-224.87" y1="277.263" x2="101.933" y2="-7.66667" stroke="#F270C3" stroke-opacity="0.2" stroke-width="2.5"/>
<line x1="-216.172" y1="277.263" x2="110.631" y2="-7.66667" stroke="#F270C3" stroke-opacity="0.2" stroke-width="2.5"/>
<line x1="-207.475" y1="277.263" x2="119.329" y2="-7.66667" stroke="#F270C3" stroke-opacity="0.2" stroke-width="2.5"/>
<line x1="-198.777" y1="277.263" x2="128.027" y2="-7.66667" stroke="#F270C3" stroke-opacity="0.2" stroke-width="2.5"/>
<line x1="-190.079" y1="277.263" x2="136.724" y2="-7.66667" stroke="#F270C3" stroke-opacity="0.2" stroke-width="2.5"/>
<line x1="-181.382" y1="277.263" x2="145.422" y2="-7.66667" stroke="#F270C3" stroke-opacity="0.2" stroke-width="2.5"/>
<line x1="-172.684" y1="277.263" x2="154.12" y2="-7.66667" stroke="#F270C3" stroke-opacity="0.2" stroke-width="2.5"/>
<line x1="123.172" y1="274.926" x2="447.611" y2="-7.94218" stroke="#F270C3" stroke-opacity="0.2" stroke-width="2.5"/>
<line x1="131.778" y1="274.926" x2="456.217" y2="-7.94218" stroke="#F270C3" stroke-opacity="0.2" stroke-width="2.5"/>
<line x1="140.384" y1="274.926" x2="464.823" y2="-7.94218" stroke="#F270C3" stroke-opacity="0.2" stroke-width="2.5"/>
<line x1="146.702" y1="277.064" x2="473.303" y2="-7.68995" stroke="#F270C3" stroke-opacity="0.2" stroke-width="2.5"/>
<line x1="155.308" y1="277.064" x2="481.909" y2="-7.68995" stroke="#F270C3" stroke-opacity="0.2" stroke-width="2.5"/>
<line x1="163.914" y1="277.064" x2="490.515" y2="-7.68995" stroke="#F270C3" stroke-opacity="0.2" stroke-width="2.5"/>
<line x1="172.52" y1="277.064" x2="499.121" y2="-7.68995" stroke="#F270C3" stroke-opacity="0.2" stroke-width="2.5"/>
<line x1="181.126" y1="277.064" x2="507.727" y2="-7.68995" stroke="#F270C3" stroke-opacity="0.2" stroke-width="2.5"/>
<line x1="189.732" y1="277.064" x2="516.333" y2="-7.68995" stroke="#F270C3" stroke-opacity="0.2" stroke-width="2.5"/>
<line x1="198.338" y1="277.064" x2="524.939" y2="-7.68995" stroke="#F270C3" stroke-opacity="0.2" stroke-width="2.5"/>
<line x1="206.944" y1="277.064" x2="533.545" y2="-7.68995" stroke="#F270C3" stroke-opacity="0.2" stroke-width="2.5"/>
<line x1="215.55" y1="277.064" x2="542.151" y2="-7.68995" stroke="#F270C3" stroke-opacity="0.2" stroke-width="2.5"/>
<line x1="224.156" y1="277.064" x2="550.757" y2="-7.68995" stroke="#F270C3" stroke-opacity="0.2" stroke-width="2.5"/>
<line x1="232.762" y1="277.064" x2="559.363" y2="-7.68995" stroke="#F270C3" stroke-opacity="0.2" stroke-width="2.5"/>
<line x1="241.368" y1="277.064" x2="567.969" y2="-7.68995" stroke="#F270C3" stroke-opacity="0.2" stroke-width="2.5"/>
<line x1="248.889" y1="277.691" x2="576.124" y2="-7.61619" stroke="#F270C3" stroke-opacity="0.2" stroke-width="2.5"/>
<line x1="257.569" y1="277.691" x2="584.805" y2="-7.61619" stroke="#F270C3" stroke-opacity="0.2" stroke-width="2.5"/>
<line x1="266.249" y1="277.691" x2="593.485" y2="-7.61619" stroke="#F270C3" stroke-opacity="0.2" stroke-width="2.5"/>
<line x1="274.93" y1="277.691" x2="602.165" y2="-7.61619" stroke="#F270C3" stroke-opacity="0.2" stroke-width="2.5"/>
<line x1="283.61" y1="277.691" x2="610.846" y2="-7.61619" stroke="#F270C3" stroke-opacity="0.2" stroke-width="2.5"/>
<line x1="292.29" y1="277.691" x2="619.526" y2="-7.61619" stroke="#F270C3" stroke-opacity="0.2" stroke-width="2.5"/>
<line x1="300.971" y1="277.691" x2="628.206" y2="-7.61619" stroke="#F270C3" stroke-opacity="0.2" stroke-width="2.5"/>
<line x1="309.651" y1="277.691" x2="636.887" y2="-7.61619" stroke="#F270C3" stroke-opacity="0.2" stroke-width="2.5"/>
<line x1="318.332" y1="277.691" x2="645.568" y2="-7.61619" stroke="#F270C3" stroke-opacity="0.2" stroke-width="2.5"/>
<line x1="327.015" y1="277.691" x2="654.251" y2="-7.61619" stroke="#F270C3" stroke-opacity="0.2" stroke-width="2.5"/>
<line x1="335.694" y1="277.691" x2="662.93" y2="-7.61619" stroke="#F270C3" stroke-opacity="0.2" stroke-width="2.5"/>
<line x1="344.373" y1="277.691" x2="671.609" y2="-7.61619" stroke="#F270C3" stroke-opacity="0.2" stroke-width="2.5"/>
<line x1="353.244" y1="277.064" x2="679.845" y2="-7.68995" stroke="#F270C3" stroke-opacity="0.2" stroke-width="2.5"/>
<line x1="361.849" y1="277.064" x2="688.451" y2="-7.68995" stroke="#F270C3" stroke-opacity="0.2" stroke-width="2.5"/>
<line x1="370.456" y1="277.064" x2="697.057" y2="-7.68995" stroke="#F270C3" stroke-opacity="0.2" stroke-width="2.5"/>
<line x1="379.06" y1="277.064" x2="705.662" y2="-7.68995" stroke="#F270C3" stroke-opacity="0.2" stroke-width="2.5"/>
<line x1="387.666" y1="277.064" x2="714.267" y2="-7.68995" stroke="#F270C3" stroke-opacity="0.2" stroke-width="2.5"/>
<line x1="396.272" y1="277.064" x2="722.874" y2="-7.68995" stroke="#F270C3" stroke-opacity="0.2" stroke-width="2.5"/>
<line x1="404.878" y1="277.064" x2="731.479" y2="-7.68995" stroke="#F270C3" stroke-opacity="0.2" stroke-width="2.5"/>
<line x1="413.484" y1="277.064" x2="740.086" y2="-7.68995" stroke="#F270C3" stroke-opacity="0.2" stroke-width="2.5"/>
<line x1="422.09" y1="277.064" x2="748.691" y2="-7.68995" stroke="#F270C3" stroke-opacity="0.2" stroke-width="2.5"/>
<line x1="430.696" y1="277.064" x2="757.297" y2="-7.68995" stroke="#F270C3" stroke-opacity="0.2" stroke-width="2.5"/>
<line x1="439.303" y1="277.064" x2="765.904" y2="-7.68995" stroke="#F270C3" stroke-opacity="0.2" stroke-width="2.5"/>
<line x1="447.908" y1="277.064" x2="774.509" y2="-7.68995" stroke="#F270C3" stroke-opacity="0.2" stroke-width="2.5"/>
<line x1="458.808" y1="274.926" x2="783.247" y2="-7.94218" stroke="#F270C3" stroke-opacity="0.2" stroke-width="2.5"/>
<line x1="467.414" y1="274.926" x2="791.853" y2="-7.94218" stroke="#F270C3" stroke-opacity="0.2" stroke-width="2.5"/>
<line x1="476.02" y1="274.926" x2="800.459" y2="-7.94218" stroke="#F270C3" stroke-opacity="0.2" stroke-width="2.5"/>
<line x1="484.627" y1="274.926" x2="809.066" y2="-7.94218" stroke="#F270C3" stroke-opacity="0.2" stroke-width="2.5"/>
<line x1="493.232" y1="274.926" x2="817.671" y2="-7.94218" stroke="#F270C3" stroke-opacity="0.2" stroke-width="2.5"/>
<line x1="501.839" y1="274.926" x2="826.278" y2="-7.94218" stroke="#F270C3" stroke-opacity="0.2" stroke-width="2.5"/>
<line x1="510.444" y1="274.926" x2="834.883" y2="-7.94218" stroke="#F270C3" stroke-opacity="0.2" stroke-width="2.5"/>
<line x1="519.051" y1="274.926" x2="843.49" y2="-7.94218" stroke="#F270C3" stroke-opacity="0.2" stroke-width="2.5"/>
<line x1="527.656" y1="274.926" x2="852.095" y2="-7.94218" stroke="#F270C3" stroke-opacity="0.2" stroke-width="2.5"/>
<line x1="536.263" y1="274.926" x2="860.702" y2="-7.94218" stroke="#F270C3" stroke-opacity="0.2" stroke-width="2.5"/>
<line x1="544.868" y1="274.926" x2="869.307" y2="-7.94218" stroke="#F270C3" stroke-opacity="0.2" stroke-width="2.5"/>
<line x1="553.474" y1="274.926" x2="877.914" y2="-7.94218" stroke="#F270C3" stroke-opacity="0.2" stroke-width="2.5"/>
<line x1="559.787" y1="277.064" x2="886.388" y2="-7.68995" stroke="#F270C3" stroke-opacity="0.2" stroke-width="2.5"/>
<line x1="568.393" y1="277.064" x2="894.995" y2="-7.68995" stroke="#F270C3" stroke-opacity="0.2" stroke-width="2.5"/>
<line x1="576.999" y1="277.064" x2="903.6" y2="-7.68995" stroke="#F270C3" stroke-opacity="0.2" stroke-width="2.5"/>
<line x1="585.605" y1="277.064" x2="912.207" y2="-7.68995" stroke="#F270C3" stroke-opacity="0.2" stroke-width="2.5"/>
<line x1="594.212" y1="277.064" x2="920.813" y2="-7.68995" stroke="#F270C3" stroke-opacity="0.2" stroke-width="2.5"/>
<line x1="602.817" y1="277.064" x2="929.419" y2="-7.68995" stroke="#F270C3" stroke-opacity="0.2" stroke-width="2.5"/>
<line x1="611.424" y1="277.064" x2="938.025" y2="-7.68995" stroke="#F270C3" stroke-opacity="0.2" stroke-width="2.5"/>
<line x1="619.029" y1="277.064" x2="945.63" y2="-7.68995" stroke="#F270C3" stroke-opacity="0.2" stroke-width="2.5"/>
<line x1="627.636" y1="277.064" x2="954.237" y2="-7.68995" stroke="#F270C3" stroke-opacity="0.2" stroke-width="2.5"/>
<line x1="636.241" y1="277.064" x2="962.842" y2="-7.68995" stroke="#F270C3" stroke-opacity="0.2" stroke-width="2.5"/>
<line x1="644.848" y1="277.064" x2="971.45" y2="-7.68995" stroke="#F270C3" stroke-opacity="0.2" stroke-width="2.5"/>
<line x1="653.455" y1="277.064" x2="980.056" y2="-7.68995" stroke="#F270C3" stroke-opacity="0.2" stroke-width="2.5"/>
<line x1="248.889" y1="277.691" x2="576.124" y2="-7.61619" stroke="#F270C3" stroke-opacity="0.2" stroke-width="2.5"/>
<line x1="257.569" y1="277.691" x2="584.805" y2="-7.61619" stroke="#F270C3" stroke-opacity="0.2" stroke-width="2.5"/>
<line x1="266.249" y1="277.691" x2="593.485" y2="-7.61619" stroke="#F270C3" stroke-opacity="0.2" stroke-width="2.5"/>
<line x1="274.93" y1="277.691" x2="602.165" y2="-7.61619" stroke="#F270C3" stroke-opacity="0.2" stroke-width="2.5"/>
<line x1="283.61" y1="277.691" x2="610.846" y2="-7.61619" stroke="#F270C3" stroke-opacity="0.2" stroke-width="2.5"/>
<line x1="292.29" y1="277.691" x2="619.526" y2="-7.61619" stroke="#F270C3" stroke-opacity="0.2" stroke-width="2.5"/>
<line x1="300.971" y1="277.691" x2="628.206" y2="-7.61619" stroke="#F270C3" stroke-opacity="0.2" stroke-width="2.5"/>
<line x1="309.651" y1="277.691" x2="636.887" y2="-7.61619" stroke="#F270C3" stroke-opacity="0.2" stroke-width="2.5"/>
<line x1="318.332" y1="277.691" x2="645.568" y2="-7.61619" stroke="#F270C3" stroke-opacity="0.2" stroke-width="2.5"/>
<line x1="327.015" y1="277.691" x2="654.251" y2="-7.61619" stroke="#F270C3" stroke-opacity="0.2" stroke-width="2.5"/>
<line x1="335.694" y1="277.691" x2="662.93" y2="-7.61619" stroke="#F270C3" stroke-opacity="0.2" stroke-width="2.5"/>
<line x1="344.373" y1="277.691" x2="671.609" y2="-7.61619" stroke="#F270C3" stroke-opacity="0.2" stroke-width="2.5"/>
<line x1="353.244" y1="277.064" x2="679.845" y2="-7.68995" stroke="#F270C3" stroke-opacity="0.2" stroke-width="2.5"/>
<line x1="361.849" y1="277.064" x2="688.451" y2="-7.68995" stroke="#F270C3" stroke-opacity="0.2" stroke-width="2.5"/>
<line x1="370.456" y1="277.064" x2="697.057" y2="-7.68995" stroke="#F270C3" stroke-opacity="0.2" stroke-width="2.5"/>
<line x1="379.06" y1="277.064" x2="705.662" y2="-7.68995" stroke="#F270C3" stroke-opacity="0.2" stroke-width="2.5"/>
<line x1="387.666" y1="277.064" x2="714.267" y2="-7.68995" stroke="#F270C3" stroke-opacity="0.2" stroke-width="2.5"/>
<line x1="396.272" y1="277.064" x2="722.874" y2="-7.68995" stroke="#F270C3" stroke-opacity="0.2" stroke-width="2.5"/>
<line x1="404.878" y1="277.064" x2="731.479" y2="-7.68995" stroke="#F270C3" stroke-opacity="0.2" stroke-width="2.5"/>
<line x1="413.484" y1="277.064" x2="740.086" y2="-7.68995" stroke="#F270C3" stroke-opacity="0.2" stroke-width="2.5"/>
<line x1="422.09" y1="277.064" x2="748.691" y2="-7.68995" stroke="#F270C3" stroke-opacity="0.2" stroke-width="2.5"/>
<line x1="430.696" y1="277.064" x2="757.297" y2="-7.68995" stroke="#F270C3" stroke-opacity="0.2" stroke-width="2.5"/>
<line x1="439.303" y1="277.064" x2="765.904" y2="-7.68995" stroke="#F270C3" stroke-opacity="0.2" stroke-width="2.5"/>
<line x1="447.908" y1="277.064" x2="774.509" y2="-7.68995" stroke="#F270C3" stroke-opacity="0.2" stroke-width="2.5"/>
<line x1="458.808" y1="274.926" x2="783.247" y2="-7.94218" stroke="#F270C3" stroke-opacity="0.2" stroke-width="2.5"/>
<line x1="467.414" y1="274.926" x2="791.853" y2="-7.94218" stroke="#F270C3" stroke-opacity="0.2" stroke-width="2.5"/>
<line x1="476.02" y1="274.926" x2="800.459" y2="-7.94218" stroke="#F270C3" stroke-opacity="0.2" stroke-width="2.5"/>
<line x1="484.627" y1="274.926" x2="809.066" y2="-7.94218" stroke="#F270C3" stroke-opacity="0.2" stroke-width="2.5"/>
<line x1="493.232" y1="274.926" x2="817.671" y2="-7.94218" stroke="#F270C3" stroke-opacity="0.2" stroke-width="2.5"/>
<line x1="501.839" y1="274.926" x2="826.278" y2="-7.94218" stroke="#F270C3" stroke-opacity="0.2" stroke-width="2.5"/>
<line x1="510.444" y1="274.926" x2="834.883" y2="-7.94218" stroke="#F270C3" stroke-opacity="0.2" stroke-width="2.5"/>
<line x1="519.051" y1="274.926" x2="843.49" y2="-7.94218" stroke="#F270C3" stroke-opacity="0.2" stroke-width="2.5"/>
<line x1="527.656" y1="274.926" x2="852.095" y2="-7.94218" stroke="#F270C3" stroke-opacity="0.2" stroke-width="2.5"/>
<line x1="536.263" y1="274.926" x2="860.702" y2="-7.94218" stroke="#F270C3" stroke-opacity="0.2" stroke-width="2.5"/>
<line x1="544.868" y1="274.926" x2="869.307" y2="-7.94218" stroke="#F270C3" stroke-opacity="0.2" stroke-width="2.5"/>
<line x1="553.474" y1="274.926" x2="877.914" y2="-7.94218" stroke="#F270C3" stroke-opacity="0.2" stroke-width="2.5"/>
<line x1="559.787" y1="277.064" x2="886.388" y2="-7.68995" stroke="#F270C3" stroke-opacity="0.2" stroke-width="2.5"/>
<line x1="569.393" y1="276.064" x2="895.995" y2="-8.68995" stroke="#F270C3" stroke-opacity="0.2" stroke-width="2.5"/>
<line x1="576.999" y1="277.064" x2="903.6" y2="-7.68995" stroke="#F270C3" stroke-opacity="0.2" stroke-width="2.5"/>
<line x1="585.605" y1="277.064" x2="912.207" y2="-7.68995" stroke="#F270C3" stroke-opacity="0.2" stroke-width="2.5"/>
<line x1="594.212" y1="277.064" x2="920.813" y2="-7.68995" stroke="#F270C3" stroke-opacity="0.2" stroke-width="2.5"/>
<line x1="602.817" y1="277.064" x2="929.419" y2="-7.68995" stroke="#F270C3" stroke-opacity="0.2" stroke-width="2.5"/>
<line x1="611.424" y1="277.064" x2="938.025" y2="-7.68995" stroke="#F270C3" stroke-opacity="0.2" stroke-width="2.5"/>
<line x1="619.029" y1="277.064" x2="945.63" y2="-7.68995" stroke="#F270C3" stroke-opacity="0.2" stroke-width="2.5"/>
<line x1="627.636" y1="277.064" x2="954.237" y2="-7.68995" stroke="#F270C3" stroke-opacity="0.2" stroke-width="2.5"/>
<line x1="636.241" y1="277.064" x2="962.842" y2="-7.68995" stroke="#F270C3" stroke-opacity="0.2" stroke-width="2.5"/>
<line x1="644.848" y1="277.064" x2="971.45" y2="-7.68995" stroke="#F270C3" stroke-opacity="0.2" stroke-width="2.5"/>
<line x1="653.455" y1="277.064" x2="980.056" y2="-7.68995" stroke="#F270C3" stroke-opacity="0.2" stroke-width="2.5"/>
<line x1="662.061" y1="277.064" x2="988.663" y2="-7.68995" stroke="#F270C3" stroke-opacity="0.2" stroke-width="2.5"/>
<line x1="670.667" y1="277.064" x2="997.268" y2="-7.68995" stroke="#F270C3" stroke-opacity="0.2" stroke-width="2.5"/>
<line x1="678.438" y1="277.252" x2="1005.04" y2="-7.50151" stroke="#F270C3" stroke-opacity="0.25" stroke-width="2"/>
<line x1="687.044" y1="277.252" x2="1013.65" y2="-7.50151" stroke="#F270C3" stroke-opacity="0.25" stroke-width="2"/>
<line x1="695.649" y1="277.252" x2="1022.25" y2="-7.50151" stroke="#F270C3" stroke-opacity="0.25" stroke-width="2"/>
<line x1="704.256" y1="277.252" x2="1030.86" y2="-7.50151" stroke="#F270C3" stroke-opacity="0.25" stroke-width="2"/>
<line x1="662.061" y1="277.064" x2="988.663" y2="-7.68995" stroke="#F270C3" stroke-opacity="0.2" stroke-width="2.5"/>
<line x1="670.667" y1="277.064" x2="997.268" y2="-7.68995" stroke="#F270C3" stroke-opacity="0.2" stroke-width="2.5"/>
<line x1="678.438" y1="277.252" x2="1005.04" y2="-7.50151" stroke="#F270C3" stroke-opacity="0.25" stroke-width="2"/>
<line x1="687.044" y1="277.252" x2="1013.65" y2="-7.50151" stroke="#F270C3" stroke-opacity="0.25" stroke-width="2"/>
<line x1="695.649" y1="277.252" x2="1022.25" y2="-7.50151" stroke="#F270C3" stroke-opacity="0.25" stroke-width="2"/>
<line x1="704.256" y1="277.252" x2="1030.86" y2="-7.50151" stroke="#F270C3" stroke-opacity="0.25" stroke-width="2"/>
<line x1="712.438" y1="277.252" x2="1039.04" y2="-7.50151" stroke="#F270C3" stroke-opacity="0.25" stroke-width="2"/>
<line x1="721.044" y1="277.252" x2="1047.65" y2="-7.50151" stroke="#F270C3" stroke-opacity="0.25" stroke-width="2"/>
<line x1="729.649" y1="277.252" x2="1056.25" y2="-7.50151" stroke="#F270C3" stroke-opacity="0.25" stroke-width="2"/>
<line x1="738.256" y1="277.252" x2="1064.86" y2="-7.50151" stroke="#F270C3" stroke-opacity="0.25" stroke-width="2"/>
<line x1="712.438" y1="277.252" x2="1039.04" y2="-7.50151" stroke="#F270C3" stroke-opacity="0.25" stroke-width="2"/>
<line x1="721.044" y1="277.252" x2="1047.65" y2="-7.50151" stroke="#F270C3" stroke-opacity="0.25" stroke-width="2"/>
<line x1="729.649" y1="277.252" x2="1056.25" y2="-7.50151" stroke="#F270C3" stroke-opacity="0.25" stroke-width="2"/>
<line x1="738.256" y1="277.252" x2="1064.86" y2="-7.50151" stroke="#F270C3" stroke-opacity="0.25" stroke-width="2"/>
</g>
<defs>
<clipPath id="clip0_16_3">
<rect width="776" height="250" fill="white"/>
</clipPath>
</defs>
</svg>
