<svg width="600" height="250" viewBox="0 0 600 250" fill="none" xmlns="http://www.w3.org/2000/svg">
<g clip-path="url(#clip0_16_3)">
<line x1="-164.201" y1="277.691" x2="163.035" y2="-7.61619" stroke="#F270C3" stroke-opacity="0.2" stroke-width="2.5"/>
<line x1="-155.52" y1="277.691" x2="171.716" y2="-7.61619" stroke="#F270C3" stroke-opacity="0.2" stroke-width="2.5"/>
<line x1="-146.84" y1="277.691" x2="180.396" y2="-7.61619" stroke="#F270C3" stroke-opacity="0.2" stroke-width="2.5"/>
<line x1="-138.16" y1="277.691" x2="189.076" y2="-7.61619" stroke="#F270C3" stroke-opacity="0.2" stroke-width="2.5"/>
<line x1="-129.48" y1="277.691" x2="197.756" y2="-7.61619" stroke="#F270C3" stroke-opacity="0.2" stroke-width="2.5"/>
<line x1="-120.799" y1="277.691" x2="206.437" y2="-7.61619" stroke="#F270C3" stroke-opacity="0.2" stroke-width="2.5"/>
<line x1="-112.119" y1="277.691" x2="215.117" y2="-7.61619" stroke="#F270C3" stroke-opacity="0.2" stroke-width="2.5"/>
<line x1="-103.438" y1="277.691" x2="223.798" y2="-7.61619" stroke="#F270C3" stroke-opacity="0.2" stroke-width="2.5"/>
<line x1="-94.7582" y1="277.691" x2="232.478" y2="-7.61619" stroke="#F270C3" stroke-opacity="0.2" stroke-width="2.5"/>
<line x1="-86.0781" y1="277.691" x2="241.158" y2="-7.61619" stroke="#F270C3" stroke-opacity="0.2" stroke-width="2.5"/>
<line x1="-77.3976" y1="277.691" x2="249.838" y2="-7.61619" stroke="#F270C3" stroke-opacity="0.2" stroke-width="2.5"/>
<line x1="-68.7177" y1="277.691" x2="258.518" y2="-7.61619" stroke="#F270C3" stroke-opacity="0.2" stroke-width="2.5"/>
<line x1="-59.8427" y1="277.064" x2="266.759" y2="-7.68995" stroke="#F270C3" stroke-opacity="0.2" stroke-width="2.5"/>
<line x1="-51.2367" y1="277.064" x2="275.365" y2="-7.68995" stroke="#F270C3" stroke-opacity="0.2" stroke-width="2.5"/>
<line x1="-42.6308" y1="277.064" x2="283.97" y2="-7.68995" stroke="#F270C3" stroke-opacity="0.2" stroke-width="2.5"/>
<line x1="-34.0246" y1="277.064" x2="292.577" y2="-7.68995" stroke="#F270C3" stroke-opacity="0.2" stroke-width="2.5"/>
<line x1="-25.4198" y1="277.064" x2="301.181" y2="-7.68995" stroke="#F270C3" stroke-opacity="0.2" stroke-width="2.5"/>
<line x1="-16.8139" y1="277.064" x2="309.787" y2="-7.68995" stroke="#F270C3" stroke-opacity="0.2" stroke-width="2.5"/>
<line x1="-8.20769" y1="277.064" x2="318.394" y2="-7.68995" stroke="#F270C3" stroke-opacity="0.2" stroke-width="2.5"/>
<line x1="0.398268" y1="277.064" x2="327" y2="-7.68995" stroke="#F270C3" stroke-opacity="0.2" stroke-width="2.5"/>
<line x1="9.00423" y1="277.064" x2="335.605" y2="-7.68995" stroke="#F270C3" stroke-opacity="0.2" stroke-width="2.5"/>
<line x1="17.6104" y1="277.064" x2="344.212" y2="-7.68995" stroke="#F270C3" stroke-opacity="0.2" stroke-width="2.5"/>
<line x1="26.2166" y1="277.064" x2="352.818" y2="-7.68995" stroke="#F270C3" stroke-opacity="0.2" stroke-width="2.5"/>
<line x1="34.8223" y1="277.064" x2="361.424" y2="-7.68995" stroke="#F270C3" stroke-opacity="0.2" stroke-width="2.5"/>
<line x1="45.7169" y1="274.926" x2="370.156" y2="-7.94218" stroke="#F270C3" stroke-opacity="0.2" stroke-width="2.5"/>
<line x1="54.3228" y1="274.926" x2="378.762" y2="-7.94218" stroke="#F270C3" stroke-opacity="0.2" stroke-width="2.5"/>
<line x1="62.9288" y1="274.926" x2="387.368" y2="-7.94218" stroke="#F270C3" stroke-opacity="0.2" stroke-width="2.5"/>
<line x1="71.5352" y1="274.926" x2="395.974" y2="-7.94218" stroke="#F270C3" stroke-opacity="0.2" stroke-width="2.5"/>
<line x1="80.1412" y1="274.926" x2="404.58" y2="-7.94218" stroke="#F270C3" stroke-opacity="0.2" stroke-width="2.5"/>
<line x1="88.7471" y1="274.926" x2="413.186" y2="-7.94218" stroke="#F270C3" stroke-opacity="0.2" stroke-width="2.5"/>
<line x1="97.3533" y1="274.926" x2="421.792" y2="-7.94218" stroke="#F270C3" stroke-opacity="0.2" stroke-width="2.5"/>
<line x1="105.96" y1="274.926" x2="430.399" y2="-7.94218" stroke="#F270C3" stroke-opacity="0.2" stroke-width="2.5"/>
<line x1="114.566" y1="274.926" x2="439.005" y2="-7.94218" stroke="#F270C3" stroke-opacity="0.2" stroke-width="2.5"/>
<line x1="123.172" y1="274.926" x2="447.611" y2="-7.94218" stroke="#F270C3" stroke-opacity="0.2" stroke-width="2.5"/>
<line x1="131.778" y1="274.926" x2="456.217" y2="-7.94218" stroke="#F270C3" stroke-opacity="0.2" stroke-width="2.5"/>
<line x1="140.384" y1="274.926" x2="464.823" y2="-7.94218" stroke="#F270C3" stroke-opacity="0.2" stroke-width="2.5"/>
<line x1="146.702" y1="277.064" x2="473.303" y2="-7.68995" stroke="#F270C3" stroke-opacity="0.2" stroke-width="2.5"/>
<line x1="155.308" y1="277.064" x2="481.909" y2="-7.68995" stroke="#F270C3" stroke-opacity="0.2" stroke-width="2.5"/>
<line x1="163.914" y1="277.064" x2="490.515" y2="-7.68995" stroke="#F270C3" stroke-opacity="0.2" stroke-width="2.5"/>
<line x1="172.52" y1="277.064" x2="499.121" y2="-7.68995" stroke="#F270C3" stroke-opacity="0.2" stroke-width="2.5"/>
<line x1="181.126" y1="277.064" x2="507.727" y2="-7.68995" stroke="#F270C3" stroke-opacity="0.2" stroke-width="2.5"/>
<line x1="189.732" y1="277.064" x2="516.333" y2="-7.68995" stroke="#F270C3" stroke-opacity="0.2" stroke-width="2.5"/>
<line x1="198.338" y1="277.064" x2="524.939" y2="-7.68995" stroke="#F270C3" stroke-opacity="0.2" stroke-width="2.5"/>
<line x1="206.944" y1="277.064" x2="533.545" y2="-7.68995" stroke="#F270C3" stroke-opacity="0.2" stroke-width="2.5"/>
<line x1="215.55" y1="277.064" x2="542.151" y2="-7.68995" stroke="#F270C3" stroke-opacity="0.2" stroke-width="2.5"/>
<line x1="224.156" y1="277.064" x2="550.757" y2="-7.68995" stroke="#F270C3" stroke-opacity="0.2" stroke-width="2.5"/>
<line x1="232.762" y1="277.064" x2="559.363" y2="-7.68995" stroke="#F270C3" stroke-opacity="0.2" stroke-width="2.5"/>
<line x1="241.368" y1="277.064" x2="567.969" y2="-7.68995" stroke="#F270C3" stroke-opacity="0.2" stroke-width="2.5"/>
<line x1="-164.201" y1="277.691" x2="163.035" y2="-7.61619" stroke="#F270C3" stroke-opacity="0.2" stroke-width="2.5"/>
<line x1="-155.52" y1="277.691" x2="171.716" y2="-7.61619" stroke="#F270C3" stroke-opacity="0.2" stroke-width="2.5"/>
<line x1="-146.84" y1="277.691" x2="180.396" y2="-7.61619" stroke="#F270C3" stroke-opacity="0.2" stroke-width="2.5"/>
<line x1="-138.16" y1="277.691" x2="189.076" y2="-7.61619" stroke="#F270C3" stroke-opacity="0.2" stroke-width="2.5"/>
<line x1="-129.48" y1="277.691" x2="197.756" y2="-7.61619" stroke="#F270C3" stroke-opacity="0.2" stroke-width="2.5"/>
<line x1="-120.799" y1="277.691" x2="206.437" y2="-7.61619" stroke="#F270C3" stroke-opacity="0.2" stroke-width="2.5"/>
<line x1="-112.119" y1="277.691" x2="215.117" y2="-7.61619" stroke="#F270C3" stroke-opacity="0.2" stroke-width="2.5"/>
<line x1="-103.438" y1="277.691" x2="223.798" y2="-7.61619" stroke="#F270C3" stroke-opacity="0.2" stroke-width="2.5"/>
<line x1="-94.7582" y1="277.691" x2="232.478" y2="-7.61619" stroke="#F270C3" stroke-opacity="0.2" stroke-width="2.5"/>
<line x1="-86.0781" y1="277.691" x2="241.158" y2="-7.61619" stroke="#F270C3" stroke-opacity="0.2" stroke-width="2.5"/>
<line x1="-77.3976" y1="277.691" x2="249.838" y2="-7.61619" stroke="#F270C3" stroke-opacity="0.2" stroke-width="2.5"/>
<line x1="-68.7177" y1="277.691" x2="258.518" y2="-7.61619" stroke="#F270C3" stroke-opacity="0.2" stroke-width="2.5"/>
<line x1="-59.8427" y1="277.064" x2="266.759" y2="-7.68995" stroke="#F270C3" stroke-opacity="0.2" stroke-width="2.5"/>
<line x1="-51.2367" y1="277.064" x2="275.365" y2="-7.68995" stroke="#F270C3" stroke-opacity="0.2" stroke-width="2.5"/>
<line x1="-42.6308" y1="277.064" x2="283.97" y2="-7.68995" stroke="#F270C3" stroke-opacity="0.2" stroke-width="2.5"/>
<line x1="-34.0246" y1="277.064" x2="292.577" y2="-7.68995" stroke="#F270C3" stroke-opacity="0.2" stroke-width="2.5"/>
<line x1="-25.4198" y1="277.064" x2="301.181" y2="-7.68995" stroke="#F270C3" stroke-opacity="0.2" stroke-width="2.5"/>
<line x1="-16.8139" y1="277.064" x2="309.787" y2="-7.68995" stroke="#F270C3" stroke-opacity="0.2" stroke-width="2.5"/>
<line x1="-8.20769" y1="277.064" x2="318.394" y2="-7.68995" stroke="#F270C3" stroke-opacity="0.2" stroke-width="2.5"/>
<line x1="0.398268" y1="277.064" x2="327" y2="-7.68995" stroke="#F270C3" stroke-opacity="0.2" stroke-width="2.5"/>
<line x1="9.00423" y1="277.064" x2="335.605" y2="-7.68995" stroke="#F270C3" stroke-opacity="0.2" stroke-width="2.5"/>
<line x1="17.6104" y1="277.064" x2="344.212" y2="-7.68995" stroke="#F270C3" stroke-opacity="0.2" stroke-width="2.5"/>
<line x1="26.2166" y1="277.064" x2="352.818" y2="-7.68995" stroke="#F270C3" stroke-opacity="0.2" stroke-width="2.5"/>
<line x1="34.8223" y1="277.064" x2="361.424" y2="-7.68995" stroke="#F270C3" stroke-opacity="0.2" stroke-width="2.5"/>
<line x1="45.7169" y1="274.926" x2="370.156" y2="-7.94218" stroke="#F270C3" stroke-opacity="0.2" stroke-width="2.5"/>
<line x1="54.3228" y1="274.926" x2="378.762" y2="-7.94218" stroke="#F270C3" stroke-opacity="0.2" stroke-width="2.5"/>
<line x1="62.9288" y1="274.926" x2="387.368" y2="-7.94218" stroke="#F270C3" stroke-opacity="0.2" stroke-width="2.5"/>
<line x1="71.5352" y1="274.926" x2="395.974" y2="-7.94218" stroke="#F270C3" stroke-opacity="0.2" stroke-width="2.5"/>
<line x1="80.1412" y1="274.926" x2="404.58" y2="-7.94218" stroke="#F270C3" stroke-opacity="0.2" stroke-width="2.5"/>
<line x1="88.7471" y1="274.926" x2="413.186" y2="-7.94218" stroke="#F270C3" stroke-opacity="0.2" stroke-width="2.5"/>
<line x1="97.3533" y1="274.926" x2="421.792" y2="-7.94218" stroke="#F270C3" stroke-opacity="0.2" stroke-width="2.5"/>
<line x1="105.96" y1="274.926" x2="430.399" y2="-7.94218" stroke="#F270C3" stroke-opacity="0.2" stroke-width="2.5"/>
<line x1="114.566" y1="274.926" x2="439.005" y2="-7.94218" stroke="#F270C3" stroke-opacity="0.2" stroke-width="2.5"/>
<line x1="-322.672" y1="279.612" x2="6.31684" y2="-7.22331" stroke="#F270C3" stroke-opacity="0.2" stroke-width="2"/>
<line x1="-313.974" y1="279.612" x2="15.0148" y2="-7.22331" stroke="#F270C3" stroke-opacity="0.2" stroke-width="2"/>
<line x1="-305.44" y1="279.423" x2="23.5483" y2="-7.41175" stroke="#F270C3" stroke-opacity="0.2" stroke-width="2.5"/>
<line x1="-296.743" y1="279.423" x2="32.2461" y2="-7.41175" stroke="#F270C3" stroke-opacity="0.2" stroke-width="2.5"/>
<line x1="-288.045" y1="279.423" x2="40.9438" y2="-7.41175" stroke="#F270C3" stroke-opacity="0.2" stroke-width="2.5"/>
<line x1="-279.347" y1="279.423" x2="49.6416" y2="-7.41175" stroke="#F270C3" stroke-opacity="0.2" stroke-width="2.5"/>
<line x1="-270.649" y1="279.423" x2="58.3393" y2="-7.41175" stroke="#F270C3" stroke-opacity="0.2" stroke-width="2.5"/>
<line x1="-261.951" y1="279.423" x2="67.0373" y2="-7.41175" stroke="#F270C3" stroke-opacity="0.2" stroke-width="2.5"/>
<line x1="-253.254" y1="279.423" x2="75.7351" y2="-7.41175" stroke="#F270C3" stroke-opacity="0.2" stroke-width="2.5"/>
<line x1="-242.265" y1="277.263" x2="84.5385" y2="-7.66667" stroke="#F270C3" stroke-opacity="0.2" stroke-width="2.5"/>
<line x1="-233.567" y1="277.263" x2="93.2363" y2="-7.66667" stroke="#F270C3" stroke-opacity="0.2" stroke-width="2.5"/>
<line x1="-224.87" y1="277.263" x2="101.933" y2="-7.66667" stroke="#F270C3" stroke-opacity="0.2" stroke-width="2.5"/>
<line x1="-216.172" y1="277.263" x2="110.631" y2="-7.66667" stroke="#F270C3" stroke-opacity="0.2" stroke-width="2.5"/>
<line x1="-207.475" y1="277.263" x2="119.329" y2="-7.66667" stroke="#F270C3" stroke-opacity="0.2" stroke-width="2.5"/>
<line x1="-198.777" y1="277.263" x2="128.027" y2="-7.66667" stroke="#F270C3" stroke-opacity="0.2" stroke-width="2.5"/>
<line x1="-190.079" y1="277.263" x2="136.724" y2="-7.66667" stroke="#F270C3" stroke-opacity="0.2" stroke-width="2.5"/>
<line x1="-181.382" y1="277.263" x2="145.422" y2="-7.66667" stroke="#F270C3" stroke-opacity="0.2" stroke-width="2.5"/>
<line x1="-172.684" y1="277.263" x2="154.12" y2="-7.66667" stroke="#F270C3" stroke-opacity="0.2" stroke-width="2.5"/>
<line x1="-322.672" y1="280.612" x2="6.31684" y2="-6.22331" stroke="#F270C3" stroke-opacity="0.2" stroke-width="2"/>
<line x1="-313.974" y1="279.612" x2="15.0148" y2="-7.22331" stroke="#F270C3" stroke-opacity="0.2" stroke-width="2"/>
<line x1="-305.44" y1="279.423" x2="23.5483" y2="-7.41175" stroke="#F270C3" stroke-opacity="0.2" stroke-width="2.5"/>
<line x1="-296.743" y1="279.423" x2="32.2461" y2="-7.41175" stroke="#F270C3" stroke-opacity="0.2" stroke-width="2.5"/>
<line x1="-288.045" y1="279.423" x2="40.9438" y2="-7.41175" stroke="#F270C3" stroke-opacity="0.2" stroke-width="2.5"/>
<line x1="-279.347" y1="279.423" x2="49.6416" y2="-7.41175" stroke="#F270C3" stroke-opacity="0.2" stroke-width="2.5"/>
<line x1="-270.649" y1="279.423" x2="58.3393" y2="-7.41175" stroke="#F270C3" stroke-opacity="0.2" stroke-width="2.5"/>
<line x1="-261.951" y1="279.423" x2="67.0373" y2="-7.41175" stroke="#F270C3" stroke-opacity="0.2" stroke-width="2.5"/>
<line x1="-253.254" y1="279.423" x2="75.7351" y2="-7.41175" stroke="#F270C3" stroke-opacity="0.2" stroke-width="2.5"/>
<line x1="-242.265" y1="277.263" x2="84.5385" y2="-7.66667" stroke="#F270C3" stroke-opacity="0.2" stroke-width="2.5"/>
<line x1="-233.567" y1="277.263" x2="93.2363" y2="-7.66667" stroke="#F270C3" stroke-opacity="0.2" stroke-width="2.5"/>
<line x1="-224.87" y1="277.263" x2="101.933" y2="-7.66667" stroke="#F270C3" stroke-opacity="0.2" stroke-width="2.5"/>
<line x1="-216.172" y1="277.263" x2="110.631" y2="-7.66667" stroke="#F270C3" stroke-opacity="0.2" stroke-width="2.5"/>
<line x1="-207.475" y1="277.263" x2="119.329" y2="-7.66667" stroke="#F270C3" stroke-opacity="0.2" stroke-width="2.5"/>
<line x1="-198.777" y1="277.263" x2="128.027" y2="-7.66667" stroke="#F270C3" stroke-opacity="0.2" stroke-width="2.5"/>
<line x1="-190.079" y1="277.263" x2="136.724" y2="-7.66667" stroke="#F270C3" stroke-opacity="0.2" stroke-width="2.5"/>
<line x1="-181.382" y1="277.263" x2="145.422" y2="-7.66667" stroke="#F270C3" stroke-opacity="0.2" stroke-width="2.5"/>
<line x1="-172.684" y1="277.263" x2="154.12" y2="-7.66667" stroke="#F270C3" stroke-opacity="0.2" stroke-width="2.5"/>
<line x1="123.172" y1="274.926" x2="447.611" y2="-7.94218" stroke="#F270C3" stroke-opacity="0.2" stroke-width="2.5"/>
<line x1="131.778" y1="274.926" x2="456.217" y2="-7.94218" stroke="#F270C3" stroke-opacity="0.2" stroke-width="2.5"/>
<line x1="140.384" y1="274.926" x2="464.823" y2="-7.94218" stroke="#F270C3" stroke-opacity="0.2" stroke-width="2.5"/>
<line x1="146.702" y1="277.064" x2="473.303" y2="-7.68995" stroke="#F270C3" stroke-opacity="0.2" stroke-width="2.5"/>
<line x1="155.308" y1="277.064" x2="481.909" y2="-7.68995" stroke="#F270C3" stroke-opacity="0.2" stroke-width="2.5"/>
<line x1="163.914" y1="277.064" x2="490.515" y2="-7.68995" stroke="#F270C3" stroke-opacity="0.2" stroke-width="2.5"/>
<line x1="172.52" y1="277.064" x2="499.121" y2="-7.68995" stroke="#F270C3" stroke-opacity="0.2" stroke-width="2.5"/>
<line x1="181.126" y1="277.064" x2="507.727" y2="-7.68995" stroke="#F270C3" stroke-opacity="0.2" stroke-width="2.5"/>
<line x1="189.732" y1="277.064" x2="516.333" y2="-7.68995" stroke="#F270C3" stroke-opacity="0.2" stroke-width="2.5"/>
<line x1="198.338" y1="277.064" x2="524.939" y2="-7.68995" stroke="#F270C3" stroke-opacity="0.2" stroke-width="2.5"/>
<line x1="206.944" y1="277.064" x2="533.545" y2="-7.68995" stroke="#F270C3" stroke-opacity="0.2" stroke-width="2.5"/>
<line x1="215.55" y1="277.064" x2="542.151" y2="-7.68995" stroke="#F270C3" stroke-opacity="0.2" stroke-width="2.5"/>
<line x1="224.156" y1="277.064" x2="550.757" y2="-7.68995" stroke="#F270C3" stroke-opacity="0.2" stroke-width="2.5"/>
<line x1="232.762" y1="277.064" x2="559.363" y2="-7.68995" stroke="#F270C3" stroke-opacity="0.2" stroke-width="2.5"/>
<line x1="241.368" y1="277.064" x2="567.969" y2="-7.68995" stroke="#F270C3" stroke-opacity="0.2" stroke-width="2.5"/>
<line x1="249.889" y1="277.691" x2="577.124" y2="-7.61619" stroke="#F270C3" stroke-opacity="0.2" stroke-width="2.5"/>
<line x1="258.569" y1="277.691" x2="585.805" y2="-7.61619" stroke="#F270C3" stroke-opacity="0.2" stroke-width="2.5"/>
<line x1="267.249" y1="277.691" x2="594.485" y2="-7.61619" stroke="#F270C3" stroke-opacity="0.2" stroke-width="2.5"/>
<line x1="275.929" y1="277.691" x2="603.165" y2="-7.61619" stroke="#F270C3" stroke-opacity="0.2" stroke-width="2.5"/>
<line x1="284.61" y1="277.691" x2="611.846" y2="-7.61619" stroke="#F270C3" stroke-opacity="0.2" stroke-width="2.5"/>
<line x1="293.29" y1="277.691" x2="620.526" y2="-7.61619" stroke="#F270C3" stroke-opacity="0.2" stroke-width="2.5"/>
<line x1="301.97" y1="277.691" x2="629.206" y2="-7.61619" stroke="#F270C3" stroke-opacity="0.2" stroke-width="2.5"/>
<line x1="310.651" y1="277.691" x2="637.887" y2="-7.61619" stroke="#F270C3" stroke-opacity="0.2" stroke-width="2.5"/>
<line x1="319.332" y1="277.691" x2="646.568" y2="-7.61619" stroke="#F270C3" stroke-opacity="0.2" stroke-width="2.5"/>
<line x1="328.015" y1="277.691" x2="655.251" y2="-7.61619" stroke="#F270C3" stroke-opacity="0.2" stroke-width="2.5"/>
<line x1="336.694" y1="277.691" x2="663.93" y2="-7.61619" stroke="#F270C3" stroke-opacity="0.2" stroke-width="2.5"/>
<line x1="345.373" y1="277.691" x2="672.609" y2="-7.61619" stroke="#F270C3" stroke-opacity="0.2" stroke-width="2.5"/>
<line x1="354.244" y1="277.064" x2="680.845" y2="-7.68995" stroke="#F270C3" stroke-opacity="0.2" stroke-width="2.5"/>
<line x1="362.849" y1="277.064" x2="689.451" y2="-7.68995" stroke="#F270C3" stroke-opacity="0.2" stroke-width="2.5"/>
<line x1="371.456" y1="277.064" x2="698.057" y2="-7.68995" stroke="#F270C3" stroke-opacity="0.2" stroke-width="2.5"/>
<line x1="380.06" y1="277.064" x2="706.662" y2="-7.68995" stroke="#F270C3" stroke-opacity="0.2" stroke-width="2.5"/>
<line x1="388.666" y1="277.064" x2="715.267" y2="-7.68995" stroke="#F270C3" stroke-opacity="0.2" stroke-width="2.5"/>
<line x1="397.272" y1="277.064" x2="723.874" y2="-7.68995" stroke="#F270C3" stroke-opacity="0.2" stroke-width="2.5"/>
<line x1="405.878" y1="277.064" x2="732.479" y2="-7.68995" stroke="#F270C3" stroke-opacity="0.2" stroke-width="2.5"/>
<line x1="414.484" y1="277.064" x2="741.086" y2="-7.68995" stroke="#F270C3" stroke-opacity="0.2" stroke-width="2.5"/>
<line x1="423.09" y1="277.064" x2="749.691" y2="-7.68995" stroke="#F270C3" stroke-opacity="0.2" stroke-width="2.5"/>
<line x1="431.696" y1="277.064" x2="758.297" y2="-7.68995" stroke="#F270C3" stroke-opacity="0.2" stroke-width="2.5"/>
<line x1="440.303" y1="277.064" x2="766.904" y2="-7.68995" stroke="#F270C3" stroke-opacity="0.2" stroke-width="2.5"/>
<line x1="448.908" y1="277.064" x2="775.509" y2="-7.68995" stroke="#F270C3" stroke-opacity="0.2" stroke-width="2.5"/>
<line x1="459.808" y1="274.926" x2="784.247" y2="-7.94218" stroke="#F270C3" stroke-opacity="0.2" stroke-width="2.5"/>
<line x1="468.414" y1="274.926" x2="792.853" y2="-7.94218" stroke="#F270C3" stroke-opacity="0.2" stroke-width="2.5"/>
<line x1="477.02" y1="274.926" x2="801.459" y2="-7.94218" stroke="#F270C3" stroke-opacity="0.2" stroke-width="2.5"/>
<line x1="485.627" y1="274.926" x2="810.066" y2="-7.94218" stroke="#F270C3" stroke-opacity="0.2" stroke-width="2.5"/>
<line x1="494.232" y1="274.926" x2="818.671" y2="-7.94218" stroke="#F270C3" stroke-opacity="0.2" stroke-width="2.5"/>
<line x1="502.839" y1="274.926" x2="827.278" y2="-7.94218" stroke="#F270C3" stroke-opacity="0.2" stroke-width="2.5"/>
<line x1="511.444" y1="274.926" x2="835.883" y2="-7.94218" stroke="#F270C3" stroke-opacity="0.2" stroke-width="2.5"/>
<line x1="520.051" y1="274.926" x2="844.49" y2="-7.94218" stroke="#F270C3" stroke-opacity="0.2" stroke-width="2.5"/>
<line x1="528.656" y1="274.926" x2="853.095" y2="-7.94218" stroke="#F270C3" stroke-opacity="0.2" stroke-width="2.5"/>
<line x1="537.263" y1="274.926" x2="861.702" y2="-7.94218" stroke="#F270C3" stroke-opacity="0.2" stroke-width="2.5"/>
<line x1="545.868" y1="274.926" x2="870.307" y2="-7.94218" stroke="#F270C3" stroke-opacity="0.2" stroke-width="2.5"/>
<line x1="554.474" y1="274.926" x2="878.914" y2="-7.94218" stroke="#F270C3" stroke-opacity="0.2" stroke-width="2.5"/>
<line x1="559.787" y1="277.064" x2="886.388" y2="-7.68995" stroke="#F270C3" stroke-opacity="0.2" stroke-width="2.5"/>
<line x1="568.393" y1="277.064" x2="894.995" y2="-7.68995" stroke="#F270C3" stroke-opacity="0.2" stroke-width="2.5"/>
<line x1="576.999" y1="277.064" x2="903.6" y2="-7.68995" stroke="#F270C3" stroke-opacity="0.2" stroke-width="2.5"/>
<line x1="585.605" y1="277.064" x2="912.207" y2="-7.68995" stroke="#F270C3" stroke-opacity="0.2" stroke-width="2.5"/>
<line x1="593.212" y1="277.064" x2="919.813" y2="-7.68995" stroke="#F270C3" stroke-opacity="0.2" stroke-width="2.5"/>
<line x1="249.889" y1="277.691" x2="577.124" y2="-7.61619" stroke="#F270C3" stroke-opacity="0.2" stroke-width="2.5"/>
<line x1="258.569" y1="277.691" x2="585.805" y2="-7.61619" stroke="#F270C3" stroke-opacity="0.2" stroke-width="2.5"/>
<line x1="267.249" y1="277.691" x2="594.485" y2="-7.61619" stroke="#F270C3" stroke-opacity="0.2" stroke-width="2.5"/>
<line x1="275.929" y1="277.691" x2="603.165" y2="-7.61619" stroke="#F270C3" stroke-opacity="0.2" stroke-width="2.5"/>
<line x1="284.61" y1="277.691" x2="611.846" y2="-7.61619" stroke="#F270C3" stroke-opacity="0.2" stroke-width="2.5"/>
<line x1="293.29" y1="277.691" x2="620.526" y2="-7.61619" stroke="#F270C3" stroke-opacity="0.2" stroke-width="2.5"/>
<line x1="301.97" y1="277.691" x2="629.206" y2="-7.61619" stroke="#F270C3" stroke-opacity="0.2" stroke-width="2.5"/>
<line x1="310.651" y1="277.691" x2="637.887" y2="-7.61619" stroke="#F270C3" stroke-opacity="0.2" stroke-width="2.5"/>
<line x1="319.332" y1="277.691" x2="646.568" y2="-7.61619" stroke="#F270C3" stroke-opacity="0.2" stroke-width="2.5"/>
<line x1="328.015" y1="277.691" x2="655.251" y2="-7.61619" stroke="#F270C3" stroke-opacity="0.2" stroke-width="2.5"/>
<line x1="336.694" y1="277.691" x2="663.93" y2="-7.61619" stroke="#F270C3" stroke-opacity="0.2" stroke-width="2.5"/>
<line x1="345.373" y1="277.691" x2="672.609" y2="-7.61619" stroke="#F270C3" stroke-opacity="0.2" stroke-width="2.5"/>
<line x1="354.244" y1="277.064" x2="680.845" y2="-7.68995" stroke="#F270C3" stroke-opacity="0.2" stroke-width="2.5"/>
<line x1="362.849" y1="277.064" x2="689.451" y2="-7.68995" stroke="#F270C3" stroke-opacity="0.2" stroke-width="2.5"/>
<line x1="371.456" y1="277.064" x2="698.057" y2="-7.68995" stroke="#F270C3" stroke-opacity="0.2" stroke-width="2.5"/>
<line x1="380.06" y1="277.064" x2="706.662" y2="-7.68995" stroke="#F270C3" stroke-opacity="0.2" stroke-width="2.5"/>
<line x1="388.666" y1="277.064" x2="715.267" y2="-7.68995" stroke="#F270C3" stroke-opacity="0.2" stroke-width="2.5"/>
<line x1="397.272" y1="277.064" x2="723.874" y2="-7.68995" stroke="#F270C3" stroke-opacity="0.2" stroke-width="2.5"/>
<line x1="405.878" y1="277.064" x2="732.479" y2="-7.68995" stroke="#F270C3" stroke-opacity="0.2" stroke-width="2.5"/>
<line x1="414.484" y1="277.064" x2="741.086" y2="-7.68995" stroke="#F270C3" stroke-opacity="0.2" stroke-width="2.5"/>
<line x1="423.09" y1="277.064" x2="749.691" y2="-7.68995" stroke="#F270C3" stroke-opacity="0.2" stroke-width="2.5"/>
<line x1="431.696" y1="277.064" x2="758.297" y2="-7.68995" stroke="#F270C3" stroke-opacity="0.2" stroke-width="2.5"/>
<line x1="440.303" y1="277.064" x2="766.904" y2="-7.68995" stroke="#F270C3" stroke-opacity="0.2" stroke-width="2.5"/>
<line x1="448.908" y1="277.064" x2="775.509" y2="-7.68995" stroke="#F270C3" stroke-opacity="0.2" stroke-width="2.5"/>
<line x1="459.808" y1="274.926" x2="784.247" y2="-7.94218" stroke="#F270C3" stroke-opacity="0.2" stroke-width="2.5"/>
<line x1="468.414" y1="274.926" x2="792.853" y2="-7.94218" stroke="#F270C3" stroke-opacity="0.2" stroke-width="2.5"/>
<line x1="477.02" y1="274.926" x2="801.459" y2="-7.94218" stroke="#F270C3" stroke-opacity="0.2" stroke-width="2.5"/>
<line x1="485.627" y1="274.926" x2="810.066" y2="-7.94218" stroke="#F270C3" stroke-opacity="0.2" stroke-width="2.5"/>
<line x1="494.232" y1="274.926" x2="818.671" y2="-7.94218" stroke="#F270C3" stroke-opacity="0.2" stroke-width="2.5"/>
<line x1="502.839" y1="274.926" x2="827.278" y2="-7.94218" stroke="#F270C3" stroke-opacity="0.2" stroke-width="2.5"/>
<line x1="511.444" y1="274.926" x2="835.883" y2="-7.94218" stroke="#F270C3" stroke-opacity="0.2" stroke-width="2.5"/>
<line x1="520.051" y1="274.926" x2="844.49" y2="-7.94218" stroke="#F270C3" stroke-opacity="0.2" stroke-width="2.5"/>
<line x1="528.656" y1="274.926" x2="853.095" y2="-7.94218" stroke="#F270C3" stroke-opacity="0.2" stroke-width="2.5"/>
<line x1="537.263" y1="274.926" x2="861.702" y2="-7.94218" stroke="#F270C3" stroke-opacity="0.2" stroke-width="2.5"/>
<line x1="545.868" y1="274.926" x2="870.307" y2="-7.94218" stroke="#F270C3" stroke-opacity="0.2" stroke-width="2.5"/>
<line x1="554.474" y1="274.926" x2="878.914" y2="-7.94218" stroke="#F270C3" stroke-opacity="0.2" stroke-width="2.5"/>
<line x1="559.787" y1="277.064" x2="886.388" y2="-7.68995" stroke="#F270C3" stroke-opacity="0.2" stroke-width="2.5"/>
<line x1="568.393" y1="276.064" x2="894.995" y2="-8.68995" stroke="#F270C3" stroke-opacity="0.2" stroke-width="2.5"/>
<line x1="576.999" y1="277.064" x2="903.6" y2="-7.68995" stroke="#F270C3" stroke-opacity="0.2" stroke-width="2.5"/>
<line x1="585.605" y1="277.064" x2="912.207" y2="-7.68995" stroke="#F270C3" stroke-opacity="0.2" stroke-width="2.5"/>
<line x1="593.212" y1="277.064" x2="919.813" y2="-7.68995" stroke="#F270C3" stroke-opacity="0.2" stroke-width="2.5"/>
</g>
<defs>
<clipPath id="clip0_16_3">
<rect width="600" height="250" fill="white"/>
</clipPath>
</defs>
</svg>
