<svg width="100" height="58" viewBox="0 0 100 58" fill="none" xmlns="http://www.w3.org/2000/svg">
<g clip-path="url(#clip0_28_7)">
<path d="M37 45L-13.2295 -15.75L87.2295 -15.75L37 45Z" fill="#B822FF"/>
<path d="M64 44L13.7705 -16.75L114.229 -16.75L64 44Z" fill="#B822FF"/>
<path d="M66.5043 40.8281C59.1291 49.8422 55.4416 54.3492 50.5975 54.6127C50.1995 54.6344 49.8005 54.6344 49.4025 54.6127C44.5584 54.3492 40.8709 49.8422 33.4957 40.8281V40.8281C21.5803 26.2648 15.6226 18.9832 17.9701 12.9889C18.1554 12.5156 18.3733 12.0558 18.6222 11.6127C21.7751 6 31.1834 6 50 6V6V6C68.8166 6 78.2249 6 81.3778 11.6127C81.6267 12.0558 81.8446 12.5156 82.0299 12.9889C84.3774 18.9832 78.4197 26.2648 66.5043 40.8281V40.8281Z" fill="#B822FF"/>
</g>
<defs>
<clipPath id="clip0_28_7">
<rect width="100" height="58" fill="white"/>
</clipPath>
</defs>
</svg>
